<svg width="1132" height="198" viewBox="0 0 1132 198" fill="none" xmlns="http://www.w3.org/2000/svg">
<path d="M1112.24 54.11C1099.6 40.4 1082.34 33.11 1062.33 33.11C1054.83 33.0697 1047.37 34.2069 1040.22 36.48C1036.35 34.9622 1032.23 34.1854 1028.08 34.19H1004.92C1000.02 34.1886 995.176 35.2697 990.741 37.3562C986.305 39.4427 982.385 42.483 979.26 46.26C977.26 44.93 975.15 43.65 972.97 42.5C960.43 36.0962 946.55 32.7573 932.47 32.7573C918.39 32.7573 904.51 36.0962 891.97 42.5C886.171 45.5756 880.793 49.3871 875.97 53.84C863.41 40.32 846.4 33.15 826.74 33.15H825.25C824.817 24.6009 821.117 16.5448 814.914 10.6455C808.711 4.74621 800.48 1.45441 791.92 1.45H768.77C760.136 1.44486 751.84 4.80208 745.64 10.81C739.436 4.80147 731.137 1.44436 722.5 1.45H699.33C690.587 1.46173 682.198 4.90324 675.965 11.0348C669.733 17.1663 666.155 25.4984 666 34.24H642.51C638.449 34.2383 634.423 34.9805 630.63 36.43C621.25 33.3755 611.351 32.2362 601.522 33.0796C591.693 33.923 582.133 36.7321 573.41 41.34C570.286 37.359 566.299 34.138 561.751 31.9193C557.203 29.7005 552.211 28.5417 547.15 28.53H516.92C515.213 28.5291 513.508 28.6594 511.82 28.92C510.517 21.1272 506.496 14.0479 500.469 8.93847C494.443 3.82908 486.801 1.02008 478.9 1.01H453.9C445.057 1.02323 436.581 4.5425 430.329 10.7961C424.077 17.0498 420.561 25.5274 420.55 34.37V35.74C408.97 29.95 395.92 26.95 381.44 26.95C365.99 26.95 351.84 30.44 339.44 37.31C332.878 40.9152 326.881 45.4637 321.64 50.81C316.319 45.7118 310.311 41.3831 303.79 37.95C290.75 31.3012 276.322 27.8348 261.685 27.8348C247.048 27.8348 232.619 31.3012 219.58 37.95C218.5 38.52 217.48 39.15 216.44 39.76V39.53C216.44 39.19 216.44 38.85 216.44 38.53V11.78H200.65C195.382 8.49803 189.297 6.76528 183.09 6.78H158.09C151.88 6.7634 145.791 8.49622 140.52 11.78H134.11C122.21 4.63 107.73 1 90.92 1H34.35C25.5074 1.01323 17.0308 4.5325 10.7791 10.7861C4.52731 17.0398 1.01058 25.5174 1 34.36V160.83C1.01059 169.671 4.52796 178.146 10.7803 184.397C17.0326 190.647 25.5092 194.162 34.35 194.17H93C113.54 194.17 130.59 188.81 143.71 178.25C144.48 179 145.23 179.7 145.97 180.35C157.69 190.61 172.97 195.82 191.37 195.85L258.6 196.53H259.16C259.87 196.53 260.58 196.53 261.29 196.53H262.11L292.67 196.75V191.17C296.353 189.845 299.941 188.272 303.41 186.46C310.377 182.798 316.763 178.124 322.36 172.59C327.407 177.598 333.129 181.876 339.36 185.3C351.82 192.17 365.97 195.66 381.43 195.66C398.85 195.66 414.3 191.3 427.43 182.71C430.542 186.739 434.537 190.001 439.106 192.246C443.676 194.491 448.699 195.659 453.79 195.66H478.79C485.636 195.679 492.32 193.584 497.93 189.66C503.543 193.577 510.225 195.671 517.07 195.66H547.53C551.988 195.646 556.398 194.741 560.503 193C564.607 191.259 568.322 188.716 571.43 185.52C582.332 191.948 594.774 195.301 607.43 195.22C615.246 195.274 623.017 194.038 630.43 191.56C634.259 193.031 638.328 193.78 642.43 193.77H665.6C670.467 193.791 675.28 192.743 679.698 190.701C684.116 188.658 688.032 185.671 691.17 181.95C702.23 189.84 716 193.83 732.17 193.83H794.62C802.604 193.838 810.323 190.965 816.36 185.74C822.402 190.964 830.123 193.836 838.11 193.83H861.11C865.885 193.831 870.604 192.804 874.947 190.82C879.29 188.836 883.155 185.94 886.28 182.33C888.02 183.44 889.79 184.5 891.63 185.49C904.106 192.061 918.02 195.426 932.12 195.28C946.207 195.409 960.11 192.078 972.61 185.58C974.89 184.38 977.06 183.05 979.17 181.66C982.297 185.463 986.228 188.526 990.68 190.627C995.133 192.728 999.997 193.815 1004.92 193.81H1028.09C1036.7 193.817 1044.98 190.483 1051.18 184.51C1057.38 190.485 1065.65 193.819 1074.26 193.81H1097.26C1106.1 193.799 1114.58 190.283 1120.83 184.031C1127.09 177.779 1130.61 169.303 1130.62 160.46V105.55C1130.6 84.63 1124.42 67.33 1112.24 54.11Z" fill="white" stroke="#00849B" stroke-width="2" stroke-miterlimit="10"/>
<path d="M130.44 107.42C127.696 103.864 124.213 100.947 120.23 98.8701C119.635 98.5605 119.132 98.0988 118.773 97.5319C118.414 96.9651 118.212 96.3133 118.186 95.6428C118.161 94.9723 118.314 94.3071 118.629 93.7147C118.944 93.1223 119.41 92.6239 119.98 92.2701C123.15 90.3568 125.948 87.8873 128.24 84.9801C132.38 79.7668 134.45 73.2101 134.45 65.3101C134.45 54.6435 130.6 46.1768 122.9 39.9101C115.2 33.6435 104.533 30.5201 90.9 30.5401H34.35C33.8489 30.5401 33.3526 30.639 32.8897 30.8311C32.4268 31.0232 32.0064 31.3047 31.6524 31.6596C31.2985 32.0144 31.0181 32.4356 30.8272 32.899C30.6363 33.3624 30.5387 33.859 30.5401 34.3601V160.83C30.5401 161.841 30.9415 162.81 31.656 163.524C32.3705 164.239 33.3396 164.64 34.35 164.64H93C107 164.64 117.92 161.36 125.76 154.8C133.6 148.24 137.517 139.357 137.51 128.15C137.592 120.635 135.097 113.319 130.44 107.42ZM63.2 60.5301C63.2 59.517 63.6025 58.5454 64.3189 57.829C65.0353 57.1126 66.0069 56.7101 67.0201 56.7101H84.6C89.95 56.7101 94.0601 57.9301 96.9201 60.3401C99.7801 62.7501 101.22 66.2601 101.22 70.8501C101.22 75.4401 99.7801 78.8501 96.9201 81.2601C94.0601 83.6701 89.92 84.7901 84.6 84.7901H67.0201C66.0087 84.7901 65.0385 84.389 64.3224 83.6748C63.6063 82.9606 63.2027 81.9915 63.2 80.9801V60.5301ZM99.9701 134.53C96.9767 137.01 92.7434 138.253 87.2701 138.26H67.0201C66.0069 138.26 65.0353 137.858 64.3189 137.141C63.6025 136.425 63.2 135.453 63.2 134.44V112.44C63.2027 111.429 63.6063 110.46 64.3224 109.745C65.0385 109.031 66.0087 108.63 67.0201 108.63H86.92C92.4 108.63 96.7 109.963 99.82 112.63C102.94 115.297 104.5 118.99 104.5 123.71C104.473 128.457 102.963 132.07 99.9701 134.55V134.53Z" fill="#00849B"/>
<path d="M189.09 138.78L189.02 135.78L186.92 40.0903C186.917 39.0806 186.515 38.1131 185.801 37.3991C185.087 36.6852 184.12 36.2829 183.11 36.2803H158.11C157.608 36.2803 157.11 36.3794 156.646 36.572C156.182 36.7646 155.76 37.0469 155.405 37.4027C155.051 37.7584 154.769 38.1807 154.578 38.6454C154.387 39.11 154.289 39.6078 154.29 40.1103L156.11 128.85L156.25 135.85V135.95C171.55 136.18 162.95 136.18 171.55 136.18L187.92 146.48C190.05 146.48 189.1 140.89 189.09 138.78Z" fill="#00849B"/>
<path d="M309.81 83.28C305.149 75.1149 298.247 68.4557 289.92 64.09C281.144 59.691 271.462 57.4004 261.645 57.4004C251.828 57.4004 242.146 59.691 233.37 64.09C225.049 68.457 218.154 75.1164 213.5 83.28C208.66 91.6333 206.243 101.28 206.25 112.22C206.22 116.242 206.555 120.258 207.25 124.22H241.25C239.99 120.347 239.385 116.292 239.46 112.22C239.46 103.553 241.557 96.9633 245.75 92.45C247.785 90.2968 250.24 88.5834 252.963 87.4155C255.685 86.2475 258.619 85.6498 261.582 85.6592C264.544 85.6685 267.474 86.2848 270.189 87.4699C272.905 88.6551 275.348 90.384 277.37 92.55C281.637 97.13 283.77 103.687 283.77 112.22C283.77 120.753 281.573 127.31 277.18 131.89C275.235 134.013 272.878 135.717 270.253 136.898C267.627 138.079 264.788 138.713 261.91 138.76H260.79C260.49 138.76 260.21 138.76 259.92 138.76L248.57 138.63L211.74 138.17C211.74 138.17 211.74 138.22 211.74 138.24C212.25 139.24 212.79 140.24 213.36 141.24C217.97 149.345 224.793 155.97 233.03 160.34C241.027 164.53 249.893 166.794 258.92 166.95C259.69 166.95 260.48 167 261.27 167H262.04H263.12C272.358 166.883 281.44 164.605 289.64 160.35C298.011 155.983 304.965 149.324 309.69 141.15C314.59 132.81 317.043 123.163 317.05 112.21C317.057 101.257 314.643 91.6133 309.81 83.28Z" fill="#00849B"/>
<path d="M427.67 126.051H400.42C399.698 126.048 398.991 126.251 398.381 126.638C397.772 127.024 397.285 127.577 396.98 128.231C393.86 134.897 388.49 138.247 380.87 138.281C378.093 138.364 375.337 137.771 372.84 136.551C370.343 135.332 368.181 133.523 366.54 131.281C362.98 126.621 361.2 119.981 361.2 111.281C361.2 102.581 362.98 95.9706 366.54 91.2806C368.181 89.0386 370.343 87.2296 372.84 86.0101C375.337 84.7905 378.093 84.1969 380.87 84.2806C388.49 84.2806 393.857 87.6306 396.97 94.3306C397.279 94.9837 397.768 95.5355 398.378 95.9215C398.989 96.3075 399.697 96.5118 400.42 96.5106H427.69C428.285 96.5099 428.871 96.3706 429.403 96.1039C429.935 95.8371 430.397 95.4501 430.753 94.9736C431.109 94.4971 431.35 93.9443 431.455 93.3588C431.56 92.7733 431.528 92.1714 431.36 91.6006C428.22 81.2073 422.757 72.974 414.97 66.9006C405.99 59.894 394.813 56.3906 381.44 56.3906C371 56.3906 361.737 58.6206 353.65 63.0806C345.623 67.4681 339.051 74.1026 334.74 82.1706C330.213 90.464 327.953 100.131 327.96 111.171C327.967 122.211 330.227 131.877 334.74 140.171C339.05 148.242 345.622 154.88 353.65 159.271C361.73 163.731 370.993 165.957 381.44 165.951C394.68 165.951 405.823 162.387 414.87 155.261C422.723 149.04 428.47 140.552 431.33 130.951C431.496 130.381 431.527 129.781 431.421 129.198C431.315 128.615 431.076 128.064 430.721 127.589C430.366 127.114 429.906 126.727 429.376 126.461C428.847 126.194 428.263 126.053 427.67 126.051Z" fill="#00849B"/>
<path d="M550.55 159.95L512.92 113.95C512.36 113.266 512.054 112.409 512.054 111.525C512.054 110.641 512.36 109.784 512.92 109.1L550.06 64.29C550.524 63.7329 550.82 63.0547 550.913 62.3352C551.005 61.6156 550.89 60.8847 550.581 60.2283C550.272 59.5718 549.783 59.0172 549.169 58.6296C548.556 58.2419 547.845 58.0374 547.12 58.04H516.92C516.325 58.0392 515.738 58.1782 515.206 58.4457C514.675 58.7131 514.214 59.1017 513.86 59.58L489.6 92.16C489.122 92.8044 488.453 93.2814 487.688 93.5231C486.923 93.7648 486.101 93.7589 485.34 93.5062C484.578 93.2535 483.916 92.7669 483.447 92.1158C482.979 91.4647 482.728 90.6823 482.73 89.88V34.36C482.727 33.346 482.322 32.3744 481.604 31.6583C480.887 30.9422 479.914 30.54 478.9 30.54H453.9C452.886 30.54 451.913 30.9422 451.195 31.6583C450.477 32.3744 450.072 33.346 450.07 34.36V162.36C450.071 162.862 450.171 163.358 450.364 163.821C450.558 164.284 450.84 164.704 451.196 165.058C451.551 165.412 451.973 165.692 452.437 165.883C452.901 166.074 453.398 166.171 453.9 166.17H478.9C479.401 166.171 479.898 166.074 480.362 165.883C480.826 165.692 481.248 165.412 481.604 165.058C481.96 164.704 482.242 164.284 482.435 163.821C482.628 163.358 482.728 162.862 482.73 162.36V132.01C482.729 131.2 482.987 130.41 483.466 129.756C483.944 129.102 484.619 128.618 485.392 128.374C486.164 128.13 486.995 128.138 487.763 128.398C488.53 128.658 489.195 129.156 489.66 129.82L514.06 164.55C514.413 165.048 514.881 165.455 515.424 165.735C515.967 166.015 516.569 166.161 517.18 166.16H547.63C548.346 166.153 549.046 165.943 549.649 165.556C550.252 165.169 550.734 164.62 551.039 163.971C551.344 163.323 551.46 162.602 551.373 161.89C551.287 161.179 551.001 160.507 550.55 159.95Z" fill="#00849B"/>
<path d="M665.68 63.7698H642.51C641.498 63.7724 640.528 64.1757 639.812 64.8916C639.096 65.6074 638.693 66.5775 638.69 67.5898V67.8698C638.688 68.5986 638.476 69.3113 638.08 69.9231C637.684 70.5348 637.12 71.0198 636.456 71.3202C635.792 71.6206 635.056 71.7237 634.335 71.6172C633.614 71.5108 632.939 71.1992 632.39 70.7198C630.535 69.1604 628.525 67.7966 626.39 66.6498C620.64 63.6719 614.234 62.1864 607.76 62.3298C599.805 62.2339 591.99 64.4202 585.24 68.6298C578.348 73.024 572.823 79.2591 569.29 86.6298C565.39 94.4298 563.44 103.496 563.44 113.83C563.44 124.163 565.39 133.256 569.29 141.11C572.813 148.54 578.336 154.843 585.24 159.31C591.911 163.557 599.672 165.777 607.58 165.7C614.055 165.845 620.462 164.356 626.21 161.37C628.422 160.201 630.504 158.799 632.42 157.19C632.973 156.714 633.651 156.407 634.373 156.305C635.096 156.202 635.832 156.309 636.496 156.612C637.16 156.914 637.723 157.401 638.119 158.014C638.515 158.627 638.727 159.34 638.73 160.07V160.44C638.733 161.452 639.136 162.422 639.852 163.138C640.568 163.854 641.538 164.257 642.55 164.26H665.72C666.731 164.257 667.7 163.854 668.415 163.137C669.129 162.421 669.53 161.451 669.53 160.44V67.5898C669.53 67.0856 669.43 66.5864 669.236 66.121C669.042 65.6556 668.758 65.2331 668.401 64.878C668.043 64.5229 667.618 64.2421 667.151 64.0519C666.684 63.8617 666.184 63.7658 665.68 63.7698ZM632.29 132.22C630.282 134.335 627.863 136.017 625.181 137.164C622.5 138.311 619.612 138.898 616.695 138.89C613.779 138.881 610.895 138.278 608.22 137.115C605.545 135.953 603.136 134.256 601.14 132.13C596.88 127.616 594.75 121.523 594.75 113.85C594.75 106.176 596.88 100.143 601.14 95.7498C603.163 93.6605 605.587 92.0009 608.266 90.8702C610.946 89.7396 613.826 89.1611 616.734 89.1695C619.642 89.1779 622.519 89.773 625.192 90.9191C627.865 92.0653 630.279 93.7389 632.29 95.8398C636.557 100.28 638.69 106.343 638.69 114.03C638.69 121.716 636.557 127.78 632.29 132.22Z" fill="#00CE52"/>
<path d="M794.63 138.16H736.86C733.5 138.16 731.09 137.5 729.65 136.16C728.21 134.82 727.49 132.68 727.49 129.68V93.1602C727.493 92.1488 727.896 91.1797 728.612 90.4655C729.328 89.7513 730.299 89.3502 731.31 89.3502H743.85C744.861 89.3475 745.83 88.9439 746.545 88.2278C747.259 87.5117 747.66 86.5416 747.66 85.5302V67.5902C747.66 66.5788 747.259 65.6087 746.545 64.8926C745.83 64.1765 744.861 63.7728 743.85 63.7702H731.31C730.297 63.7702 729.325 63.3677 728.609 62.6513C727.892 61.935 727.49 60.9633 727.49 59.9502L726.32 34.8002C726.324 34.296 726.228 33.7961 726.038 33.3291C725.848 32.8622 725.567 32.4375 725.212 32.0796C724.857 31.7217 724.434 31.4377 723.969 31.2438C723.503 31.05 723.004 30.9502 722.5 30.9502H699.33C698.32 30.9528 697.353 31.3551 696.639 32.069C695.925 32.783 695.523 33.7505 695.52 34.7602L696.69 59.9502C696.69 60.9547 696.294 61.9188 695.589 62.6338C694.883 63.3488 693.924 63.757 692.92 63.7702H688.3C687.798 63.7702 687.302 63.869 686.838 64.061C686.375 64.2529 685.954 64.5343 685.599 64.889C685.244 65.2438 684.963 65.6649 684.771 66.1283C684.579 66.5918 684.48 67.0885 684.48 67.5902V85.5302C684.48 86.0318 684.579 86.5286 684.771 86.992C684.963 87.4555 685.244 87.8766 685.599 88.2313C685.954 88.5861 686.375 88.8674 686.838 89.0594C687.302 89.2514 687.798 89.3502 688.3 89.3502H692.92C693.93 89.3528 694.897 89.7551 695.611 90.469C696.325 91.183 696.727 92.1505 696.73 93.1602V129.34C696.73 141.7 699.85 150.614 706.09 156.08C712.33 161.547 721.04 164.28 732.22 164.28H794.67C795.683 164.28 796.655 163.878 797.371 163.161C798.088 162.445 798.49 161.473 798.49 160.46V141.95C798.486 141.448 798.383 140.951 798.187 140.488C797.991 140.026 797.705 139.606 797.346 139.254C796.988 138.902 796.563 138.624 796.097 138.437C795.631 138.249 795.132 138.155 794.63 138.16Z" fill="#00CE52"/>
<path d="M261.97 138.761H261.67H259.98L248.63 138.631L211.82 138.241L196.52 138.071C193.187 138.071 190.787 137.404 189.32 136.071L189.02 135.771C187.78 134.431 187.16 132.361 187.16 129.581V89.2305L186.89 65.8105V41.3105H156.09V65.8105L155.89 66.1005V91.6805L156.09 91.3905V131.391C156.09 132.921 156.09 134.391 156.23 135.841V135.951C156.897 145.991 159.97 153.394 165.45 158.161C171.69 163.634 180.397 166.367 191.57 166.361L258.92 166.951H262.04H263.12L263.42 138.721L261.97 138.761Z" fill="#00849B"/>
<path d="M854.47 74.1304C847.51 66.5104 838.267 62.6971 826.74 62.6904C820.447 62.6066 814.219 63.9754 808.54 66.6904C806.194 67.8102 803.975 69.178 801.92 70.7704C801.358 71.2201 800.68 71.5013 799.965 71.5815C799.25 71.6618 798.526 71.5378 797.878 71.2238C797.231 70.9099 796.685 70.4189 796.305 69.8078C795.925 69.1966 795.725 68.4902 795.73 67.7704V34.7704C795.73 33.759 795.329 32.7889 794.615 32.0728C793.901 31.3567 792.932 30.9531 791.92 30.9504H768.77C768.263 30.9451 767.76 31.041 767.29 31.2326C766.821 31.4242 766.394 31.7075 766.036 32.0661C765.677 32.4247 765.394 32.8512 765.202 33.3208C765.011 33.7903 764.915 34.2933 764.92 34.8004V117.68C764.92 118.691 765.322 119.66 766.036 120.374C766.751 121.089 767.72 121.49 768.73 121.49H791.92C792.932 121.49 793.902 121.089 794.618 120.375C795.334 119.661 795.737 118.692 795.74 117.68V109.68C795.74 102.96 797.48 97.7371 800.96 94.0104C804.44 90.2837 809.107 88.4237 814.96 88.4304C820.847 88.4304 825.533 90.2904 829.02 94.0104C832.507 97.7304 834.247 102.954 834.24 109.68V160.44C834.24 161.454 834.643 162.425 835.359 163.142C836.075 163.858 837.047 164.26 838.06 164.26H861.06C862.073 164.26 863.045 163.858 863.761 163.142C864.478 162.425 864.88 161.454 864.88 160.44V105.55C864.907 92.2304 861.437 81.7571 854.47 74.1304Z" fill="#00CE52"/>
<path d="M977.86 86.7398C973.469 79.0386 966.967 72.7546 959.12 68.6298C950.845 64.4871 941.719 62.3301 932.465 62.3301C923.211 62.3301 914.085 64.4871 905.81 68.6298C897.966 72.7548 891.466 79.039 887.08 86.7398C882.513 94.5998 880.23 103.697 880.23 114.03C880.23 124.47 882.483 133.597 886.99 141.41C891.331 149.055 897.767 155.301 905.54 159.41C913.734 163.69 922.867 165.856 932.11 165.71C941.406 165.84 950.59 163.676 958.85 159.41C966.748 155.292 973.311 149.011 977.77 141.3C982.39 133.44 984.7 124.347 984.7 114.02C984.7 103.693 982.42 94.5998 977.86 86.7398ZM947.15 132.58C945.243 134.651 942.923 136.297 940.339 137.414C937.755 138.53 934.965 139.091 932.15 139.06C929.378 139.12 926.626 138.571 924.09 137.451C921.553 136.332 919.293 134.669 917.47 132.58C913.57 128.253 911.62 122.07 911.62 114.03C911.62 105.857 913.6 99.6398 917.56 95.3798C919.481 93.3538 921.795 91.7418 924.362 90.643C926.929 89.5442 929.693 88.9817 932.484 88.9901C935.276 88.9986 938.037 89.5777 940.597 90.692C943.157 91.8063 945.461 93.4322 947.37 95.4698C951.37 99.7898 953.37 105.977 953.37 114.03C953.37 122.083 951.297 128.267 947.15 132.58Z" fill="#00CE52"/>
<path d="M1090.52 74.1305C1083.49 66.5105 1074.09 62.6972 1062.33 62.6905C1056.17 62.5934 1050.07 63.9176 1044.5 66.5605C1042.23 67.6602 1040.08 69.0013 1038.09 70.5605C1037.53 71.0132 1036.85 71.297 1036.13 71.3789C1035.42 71.4608 1034.69 71.3374 1034.04 71.0231C1033.39 70.7088 1032.84 70.2165 1032.46 69.6036C1032.08 68.9906 1031.88 68.2821 1031.89 67.5605C1031.89 66.5491 1031.49 65.579 1030.77 64.8629C1030.06 64.1468 1029.09 63.7432 1028.08 63.7405H1004.92C1003.91 63.7405 1002.94 64.143 1002.22 64.8594C1001.5 65.5758 1001.1 66.5474 1001.1 67.5605V160.431C1001.1 161.444 1001.5 162.415 1002.22 163.132C1002.94 163.848 1003.91 164.251 1004.92 164.251H1028.09C1029.1 164.248 1030.07 163.844 1030.78 163.128C1031.5 162.412 1031.9 161.442 1031.9 160.431V109.701C1031.9 102.981 1033.64 97.7572 1037.13 94.0305C1040.62 90.3039 1045.28 88.4439 1051.13 88.4505C1057.01 88.4505 1061.68 90.3105 1065.13 94.0305C1068.58 97.7505 1070.33 102.974 1070.36 109.701V160.461C1070.36 161.472 1070.76 162.442 1071.48 163.158C1072.19 163.874 1073.16 164.278 1074.17 164.281H1097.17C1098.18 164.281 1099.15 163.878 1099.87 163.162C1100.59 162.445 1100.99 161.474 1100.99 160.461V105.551C1101.04 92.2305 1097.55 81.7572 1090.52 74.1305Z" fill="#00CE52"/>
<path d="M261.67 138.76V138.78H261.42L260.85 138.77L248.63 138.61L259.98 138.74L261.67 138.76Z" fill="white"/>
</svg>
