<svg width="405" height="72" viewBox="0 0 405 72" fill="none" xmlns="http://www.w3.org/2000/svg">
<path d="M397.443 19.9474C392.933 15.0562 386.776 12.4555 379.637 12.4555C376.961 12.4411 374.299 12.8468 371.749 13.6577C370.37 13.1163 368.9 12.8391 367.418 12.8408H359.156C357.407 12.8403 355.679 13.226 354.097 13.9703C352.515 14.7147 351.116 15.7994 350.001 17.1468C349.288 16.6723 348.535 16.2157 347.757 15.8054C343.284 13.5208 338.332 12.3297 333.309 12.3297C328.285 12.3297 323.334 13.5208 318.86 15.8054C316.791 16.9027 314.872 18.2625 313.152 19.851C308.671 15.0277 302.602 12.4697 295.589 12.4697H295.057C294.902 9.4198 293.582 6.54571 291.37 4.4411C289.157 2.33649 286.22 1.16211 283.166 1.16054H274.907C271.827 1.15871 268.868 2.35642 266.656 4.49979C264.442 2.3562 261.481 1.15853 258.4 1.16054H250.134C247.015 1.16473 244.022 2.39251 241.799 4.57998C239.575 6.76745 238.299 9.73997 238.243 12.8586H229.863C228.415 12.858 226.978 13.1228 225.625 13.6399C222.278 12.5502 218.747 12.1437 215.24 12.4446C211.734 12.7455 208.323 13.7477 205.211 15.3916C204.097 13.9713 202.675 12.8222 201.052 12.0307C199.429 11.2391 197.648 10.8257 195.843 10.8215H185.058C184.449 10.8212 183.841 10.8677 183.239 10.9607C182.774 8.18051 181.339 5.65492 179.189 3.83211C177.039 2.0093 174.313 1.00717 171.494 1.00357H162.575C159.421 1.00829 156.397 2.26381 154.166 4.49484C151.936 6.72587 150.681 9.75031 150.677 12.905V13.3937C146.546 11.3281 141.891 10.2578 136.725 10.2578C131.213 10.2578 126.165 11.5029 121.741 13.9539C119.4 15.24 117.26 16.8627 115.391 18.7701C113.492 16.9512 111.349 15.407 109.022 14.1822C104.371 11.8102 99.223 10.5735 94.0012 10.5735C88.7795 10.5735 83.6319 11.8102 78.98 14.1822C78.5947 14.3855 78.2308 14.6103 77.8597 14.8279V14.7459C77.8597 14.6246 77.8597 14.5033 77.8597 14.3891V4.84584H72.2266C70.3472 3.67497 68.1762 3.0568 65.9619 3.06206H57.043C54.8275 3.05613 52.6552 3.67433 50.7748 4.84584H48.4879C44.2425 2.29503 39.0767 1 33.0796 1H12.8979C9.74318 1.00472 6.71911 2.26025 4.48875 4.49127C2.25839 6.7223 1.00377 9.74674 1 12.9014V58.0205C1.00378 61.1745 2.25862 64.1982 4.48919 66.4281C6.71975 68.658 9.74383 69.9119 12.8979 69.9148H33.8217C41.1494 69.9148 47.2322 68.0025 51.9128 64.2352C52.1875 64.5028 52.4551 64.7525 52.7191 64.9844C56.9003 68.6447 62.3515 70.5034 68.9159 70.5141L92.9006 70.7567H93.1004C93.3537 70.7567 93.607 70.7567 93.8603 70.7567H94.1528L105.055 70.8352V68.8445C106.369 68.3719 107.649 67.8105 108.887 67.1642C111.372 65.8577 113.651 64.1902 115.647 62.216C117.448 64.0026 119.489 65.5289 121.712 66.7503C126.158 69.2013 131.206 70.4463 136.721 70.4463C142.936 70.4463 148.448 68.8909 153.132 65.8263C154.242 67.2637 155.667 68.4275 157.298 69.2284C158.928 70.0292 160.72 70.4459 162.536 70.4463H171.455C173.897 70.4532 176.282 69.7056 178.283 68.3058C180.286 69.7031 182.67 70.4504 185.112 70.4463H195.978C197.569 70.4412 199.142 70.1186 200.607 69.4974C202.071 68.8762 203.396 67.969 204.505 66.8288C208.394 69.1222 212.833 70.3181 217.348 70.2894C220.137 70.3087 222.909 69.8676 225.554 68.9836C226.92 69.5083 228.371 69.7756 229.835 69.7721H238.101C239.837 69.7795 241.554 69.4057 243.13 68.6771C244.707 67.9485 246.104 66.8828 247.223 65.5552C251.169 68.37 256.081 69.7935 261.85 69.7935H284.13C286.978 69.7962 289.732 68.7714 291.885 66.9073C294.041 68.7709 296.796 69.7955 299.645 69.7935H307.85C309.554 69.7938 311.237 69.4276 312.787 68.7197C314.336 68.0118 315.715 66.9788 316.83 65.6908C317.451 66.0868 318.082 66.4649 318.739 66.8181C323.189 69.1624 328.154 70.3627 333.184 70.3108C338.209 70.3567 343.169 69.1684 347.629 66.8502C348.442 66.4221 349.216 65.9476 349.969 65.4517C351.085 66.8086 352.487 67.9012 354.076 68.6507C355.664 69.4003 357.399 69.7881 359.156 69.7863H367.422C370.494 69.7887 373.447 68.5993 375.659 66.4685C377.87 68.6001 380.822 69.7897 383.893 69.7863H392.099C395.253 69.7826 398.278 68.5279 400.509 66.2976C402.74 64.0672 403.995 61.0432 404 57.8885V38.299C403.993 30.8356 401.788 24.6637 397.443 19.9474Z" fill="white" stroke="#00849B" stroke-width="2" stroke-miterlimit="10"/>
<path d="M47.1791 38.9627C46.2002 37.694 44.9574 36.6533 43.5366 35.9124C43.3243 35.8019 43.1449 35.6372 43.0169 35.435C42.8888 35.2328 42.8166 35.0002 42.8075 34.761C42.7985 34.5218 42.8529 34.2845 42.9653 34.0732C43.0777 33.8618 43.244 33.684 43.4474 33.5578C44.5782 32.8752 45.5764 31.9942 46.3942 30.957C47.8712 29.0972 48.6097 26.758 48.6097 23.9396C48.6097 20.1342 47.2362 17.1137 44.4891 14.878C41.7421 12.6423 37.9367 11.5281 33.0729 11.5352H12.8983C12.7195 11.5352 12.5425 11.5705 12.3773 11.639C12.2122 11.7075 12.0622 11.808 11.9359 11.9346C11.8097 12.0612 11.7096 12.2114 11.6415 12.3767C11.5734 12.5421 11.5386 12.7192 11.5391 12.898V58.0171C11.5391 58.3776 11.6823 58.7233 11.9372 58.9782C12.1921 59.2331 12.5378 59.3763 12.8983 59.3763H33.8221C38.8167 59.3763 42.7125 58.2062 45.5095 55.8658C48.3064 53.5255 49.7037 50.3563 49.7014 46.3582C49.7305 43.6772 48.8404 41.0672 47.1791 38.9627ZM23.1908 22.2343C23.1908 21.8729 23.3343 21.5263 23.5899 21.2707C23.8455 21.0151 24.1921 20.8715 24.5536 20.8715H30.8253C32.734 20.8715 34.2003 21.3068 35.2206 22.1665C36.2409 23.0263 36.7547 24.2786 36.7547 25.9161C36.7547 27.5536 36.2409 28.7701 35.2206 29.6299C34.2003 30.4897 32.7233 30.8893 30.8253 30.8893H24.5536C24.1927 30.8893 23.8466 30.7462 23.5912 30.4914C23.3357 30.2366 23.1917 29.8908 23.1908 29.53V22.2343ZM36.3087 48.6344C35.2408 49.5191 33.7305 49.9627 31.7779 49.9651H24.5536C24.1921 49.9651 23.8455 49.8215 23.5899 49.5659C23.3343 49.3103 23.1908 48.9637 23.1908 48.6022V40.7536C23.1917 40.3928 23.3357 40.0471 23.5912 39.7922C23.8466 39.5374 24.1927 39.3943 24.5536 39.3943H31.653C33.6081 39.3943 35.1421 39.87 36.2552 40.8214C37.3683 41.7727 37.9248 43.0903 37.9248 44.7742C37.9153 46.4676 37.3766 47.7567 36.3087 48.6415V48.6344Z" fill="#00849B"/>
<path d="M68.1022 50.1496L68.0772 49.0794L67.328 14.9413C67.3271 14.5811 67.1836 14.2359 66.9289 13.9812C66.6741 13.7265 66.329 13.583 65.9688 13.582H57.0498C56.8706 13.582 56.6931 13.6174 56.5275 13.6861C56.3619 13.7548 56.2115 13.8555 56.0849 13.9824C55.9583 14.1094 55.858 14.26 55.7897 14.4258C55.7215 14.5915 55.6865 14.7691 55.687 14.9484L56.3363 46.607L56.3863 49.1043V49.14C61.8446 49.2221 58.7765 49.2221 61.8446 49.2221L67.6848 52.8967C68.4447 52.8967 68.1057 50.9024 68.1022 50.1496Z" fill="#00849B"/>
<path d="M111.17 30.3519C109.507 27.4389 107.045 25.0632 104.074 23.5057C100.943 21.9363 97.4892 21.1191 93.9869 21.1191C90.4846 21.1191 87.0306 21.9363 83.8995 23.5057C80.9311 25.0637 78.4711 27.4394 76.8108 30.3519C75.0841 33.332 74.2219 36.7735 74.2243 40.6764C74.2136 42.1113 74.3331 43.5442 74.581 44.9575H86.7108C86.2613 43.5759 86.0455 42.129 86.0722 40.6764C86.0722 37.5845 86.8202 35.2335 88.3162 33.6233C89.0423 32.8552 89.918 32.2439 90.8894 31.8272C91.8608 31.4106 92.9073 31.1973 93.9642 31.2007C95.0212 31.204 96.0663 31.4239 97.0351 31.8467C98.0038 32.2695 98.8757 32.8863 99.5969 33.659C101.119 35.293 101.88 37.6321 101.88 40.6764C101.88 43.7208 101.096 46.0599 99.5291 47.6938C98.8353 48.4512 97.9944 49.0591 97.0577 49.4805C96.1211 49.9019 95.1083 50.1279 94.0814 50.1448H93.6818C93.5748 50.1448 93.4749 50.1448 93.3714 50.1448L89.3223 50.0984L76.1829 49.9343C76.1829 49.9343 76.1829 49.9521 76.1829 49.9592C76.3648 50.316 76.5575 50.6728 76.7608 51.0295C78.4055 53.9211 80.8395 56.2846 83.7782 57.8436C86.6313 59.3385 89.7942 60.1461 93.0147 60.2017C93.2894 60.2017 93.5712 60.2196 93.8531 60.2196H94.1278H94.5131C97.8087 60.1777 101.049 59.3652 103.974 57.8471C106.961 56.2893 109.442 53.9135 111.127 50.9974C112.875 48.022 113.751 44.5805 113.753 40.6729C113.755 36.7652 112.894 33.3248 111.17 30.3519Z" fill="#00849B"/>
<path d="M153.217 45.6134H143.495C143.238 45.6124 142.985 45.6851 142.768 45.8229C142.55 45.9607 142.377 46.1579 142.268 46.3911C141.155 48.7695 139.239 49.9647 136.521 49.9766C135.53 50.0064 134.547 49.7947 133.656 49.3596C132.765 48.9245 131.994 48.2791 131.408 47.4793C130.138 45.8168 129.503 43.4479 129.503 40.3441C129.503 37.2403 130.138 34.8822 131.408 33.209C131.994 32.4091 132.765 31.7638 133.656 31.3287C134.547 30.8936 135.53 30.6818 136.521 30.7117C139.239 30.7117 141.154 31.9068 142.264 34.2971C142.375 34.5301 142.549 34.7269 142.767 34.8646C142.985 35.0023 143.237 35.0752 143.495 35.0748H153.224C153.436 35.0746 153.645 35.0249 153.835 34.9297C154.025 34.8345 154.19 34.6965 154.317 34.5265C154.444 34.3565 154.53 34.1592 154.567 33.9504C154.605 33.7415 154.593 33.5267 154.533 33.3231C153.413 29.6152 151.464 26.6779 148.686 24.5112C145.482 22.0116 141.495 20.7617 136.724 20.7617C132.999 20.7617 129.695 21.5573 126.81 23.1484C123.946 24.7137 121.601 27.0806 120.063 29.9589C118.448 32.9176 117.642 36.3663 117.645 40.3049C117.647 44.2435 118.453 47.6921 120.063 50.6508C121.601 53.5305 123.946 55.8987 126.81 57.4649C129.692 59.056 132.997 59.8504 136.724 59.848C141.447 59.848 145.423 58.5768 148.65 56.0343C151.452 53.815 153.502 50.7869 154.523 47.3615C154.582 47.1584 154.593 46.9444 154.555 46.7362C154.517 46.5281 154.432 46.3316 154.305 46.1621C154.179 45.9926 154.014 45.8549 153.826 45.7597C153.637 45.6644 153.428 45.6144 153.217 45.6134Z" fill="#00849B"/>
<path d="M197.055 57.7031L183.631 41.2923C183.431 41.0482 183.322 40.7425 183.322 40.4271C183.322 40.1118 183.431 39.8061 183.631 39.562L196.881 23.5757C197.046 23.3769 197.152 23.135 197.185 22.8783C197.218 22.6216 197.177 22.3608 197.067 22.1266C196.956 21.8925 196.782 21.6946 196.563 21.5563C196.344 21.418 196.091 21.345 195.832 21.346H185.058C184.845 21.3457 184.636 21.3953 184.446 21.4907C184.257 21.5861 184.092 21.7247 183.966 21.8954L175.311 33.5185C175.141 33.7484 174.902 33.9186 174.629 34.0048C174.356 34.091 174.063 34.0889 173.791 33.9988C173.52 33.9086 173.283 33.735 173.116 33.5028C172.949 33.2705 172.859 32.9913 172.86 32.7051V12.898C172.859 12.5362 172.715 12.1896 172.459 11.9341C172.203 11.6786 171.856 11.5352 171.494 11.5352H162.575C162.213 11.5352 161.866 11.6786 161.61 11.9341C161.354 12.1896 161.209 12.5362 161.208 12.898V58.5629C161.209 58.7418 161.245 58.919 161.314 59.0841C161.383 59.2493 161.483 59.3993 161.61 59.5255C161.737 59.6517 161.888 59.7517 162.053 59.8197C162.219 59.8878 162.396 59.9226 162.575 59.9221H171.494C171.673 59.9226 171.85 59.8878 172.016 59.8197C172.181 59.7517 172.332 59.6517 172.458 59.5255C172.585 59.3993 172.686 59.2493 172.755 59.0841C172.824 58.919 172.86 58.7418 172.86 58.5629V47.7353C172.86 47.4462 172.952 47.1645 173.123 46.9312C173.293 46.6979 173.534 46.5252 173.81 46.4381C174.086 46.3509 174.382 46.354 174.656 46.4468C174.929 46.5396 175.167 46.7172 175.332 46.954L184.037 59.3442C184.163 59.5219 184.33 59.6669 184.524 59.7668C184.718 59.8668 184.933 59.9188 185.15 59.9186H196.014C196.269 59.9159 196.519 59.8413 196.734 59.7032C196.949 59.5651 197.121 59.3691 197.23 59.1378C197.339 58.9064 197.38 58.6491 197.349 58.3953C197.318 58.1415 197.216 57.9016 197.055 57.7031Z" fill="#00849B"/>
<path d="M238.13 23.3941H229.864C229.502 23.395 229.156 23.5389 228.901 23.7943C228.646 24.0496 228.502 24.3957 228.501 24.7569V24.8568C228.5 25.1168 228.424 25.371 228.283 25.5893C228.142 25.8075 227.941 25.9806 227.704 26.0877C227.467 26.1949 227.204 26.2317 226.947 26.1937C226.69 26.1557 226.449 26.0446 226.253 25.8735C225.591 25.3172 224.874 24.8306 224.113 24.4215C222.061 23.3591 219.776 22.8292 217.466 22.8803C214.628 22.8461 211.84 23.6261 209.432 25.1279C206.973 26.6956 205.002 28.92 203.742 31.5495C202.35 34.3322 201.655 37.5668 201.655 41.2533C201.655 44.9398 202.35 48.1839 203.742 50.9857C204.999 53.6366 206.969 55.885 209.432 57.4786C211.812 58.9938 214.581 59.7857 217.402 59.7583C219.712 59.8101 221.998 59.2788 224.048 58.2136C224.838 57.7964 225.58 57.2965 226.264 56.7223C226.461 56.5527 226.703 56.4431 226.961 56.4065C227.219 56.37 227.481 56.408 227.718 56.516C227.955 56.6241 228.156 56.7977 228.297 57.0164C228.438 57.235 228.514 57.4895 228.515 57.7498V57.8818C228.516 58.2429 228.66 58.589 228.915 58.8444C229.171 59.0998 229.517 59.2436 229.878 59.2446H238.144C238.505 59.2436 238.85 59.0997 239.105 58.8442C239.36 58.5887 239.503 58.2426 239.503 57.8818V24.7569C239.503 24.577 239.468 24.3989 239.398 24.2329C239.329 24.0668 239.228 23.9161 239.1 23.7894C238.973 23.6627 238.821 23.5626 238.654 23.4947C238.488 23.4269 238.309 23.3927 238.13 23.3941ZM226.218 47.8141C225.501 48.5686 224.638 49.1688 223.681 49.578C222.725 49.9872 221.695 50.1967 220.654 50.1937C219.614 50.1907 218.585 49.9752 217.63 49.5605C216.676 49.1458 215.817 48.5406 215.105 47.782C213.585 46.1718 212.825 43.998 212.825 41.2605C212.825 38.5229 213.585 36.3705 215.105 34.8032C215.826 34.0578 216.691 33.4657 217.647 33.0623C218.603 32.659 219.63 32.4526 220.668 32.4556C221.705 32.4586 222.732 32.6709 223.685 33.0798C224.639 33.4887 225.5 34.0857 226.218 34.8353C227.74 36.4193 228.501 38.5824 228.501 41.3247C228.501 44.067 227.74 46.2301 226.218 47.8141Z" fill="#00CE52"/>
<path d="M284.133 49.9354H263.523C262.325 49.9354 261.465 49.7 260.951 49.2219C260.437 48.7439 260.181 47.9804 260.181 46.9101V33.8814C260.182 33.5205 260.325 33.1748 260.581 32.92C260.836 32.6652 261.183 32.5221 261.543 32.5221H266.017C266.378 32.5212 266.724 32.3772 266.978 32.1217C267.233 31.8662 267.376 31.5201 267.376 31.1593V24.7591C267.376 24.3983 267.233 24.0522 266.978 23.7967C266.724 23.5412 266.378 23.3972 266.017 23.3963H261.543C261.182 23.3963 260.835 23.2527 260.58 22.9971C260.324 22.7415 260.181 22.3949 260.181 22.0335L259.763 13.061C259.765 12.8811 259.73 12.7028 259.662 12.5362C259.595 12.3696 259.494 12.2181 259.368 12.0904C259.241 11.9627 259.09 11.8614 258.924 11.7923C258.758 11.7231 258.58 11.6875 258.4 11.6875H250.134C249.774 11.6884 249.429 11.8319 249.174 12.0867C248.919 12.3414 248.776 12.6865 248.775 13.0467L249.192 22.0335C249.192 22.3918 249.051 22.7358 248.8 22.9909C248.548 23.2459 248.206 23.3916 247.847 23.3963H246.199C246.02 23.3963 245.843 23.4315 245.678 23.5C245.512 23.5685 245.362 23.6689 245.236 23.7954C245.109 23.922 245.009 24.0722 244.94 24.2376C244.872 24.4029 244.836 24.5801 244.836 24.7591V31.1593C244.836 31.3383 244.872 31.5155 244.94 31.6808C245.009 31.8462 245.109 31.9964 245.236 32.123C245.362 32.2495 245.512 32.3499 245.678 32.4184C245.843 32.4869 246.02 32.5221 246.199 32.5221H247.847C248.208 32.5231 248.553 32.6666 248.808 32.9213C249.062 33.176 249.206 33.5211 249.207 33.8814V46.7888C249.207 51.1983 250.32 54.3782 252.546 56.3285C254.772 58.2788 257.879 59.2539 261.868 59.2539H284.148C284.509 59.2539 284.856 59.1103 285.111 58.8548C285.367 58.5992 285.51 58.2525 285.51 57.8911V51.2875C285.509 51.1083 285.472 50.931 285.402 50.766C285.332 50.6009 285.23 50.4513 285.102 50.3257C284.974 50.2001 284.823 50.101 284.657 50.034C284.49 49.967 284.313 49.9335 284.133 49.9354Z" fill="#00CE52"/>
<path d="M94.1026 50.1449H93.9956H93.3927L89.3435 50.0985L76.2112 49.9594L70.7529 49.8987C69.5637 49.8987 68.7074 49.6609 68.1842 49.1852L68.0772 49.0782C67.6348 48.6001 67.4136 47.8616 67.4136 46.8699V32.4747L67.3173 24.1195V15.3789H56.3292V24.1195L56.2578 24.2229V33.3488L56.3292 33.2453V47.5156C56.3292 48.0614 56.3292 48.5859 56.3791 49.1032V49.1424C56.6169 52.7242 57.7134 55.3654 59.6684 57.066C61.8946 59.0186 65.0007 59.9938 68.9869 59.9914L93.0145 60.2019H94.1276H94.5129L94.6199 50.1306L94.1026 50.1449Z" fill="#00849B"/>
<path d="M305.48 27.0923C302.997 24.3739 299.699 23.0134 295.587 23.011C293.342 22.9812 291.12 23.4695 289.094 24.4381C288.257 24.8376 287.465 25.3255 286.732 25.8936C286.532 26.0541 286.29 26.1544 286.035 26.183C285.78 26.2116 285.521 26.1674 285.29 26.0554C285.059 25.9434 284.865 25.7682 284.729 25.5502C284.593 25.3322 284.522 25.0802 284.524 24.8234V13.0504C284.524 12.6896 284.381 12.3435 284.126 12.088C283.871 11.8325 283.526 11.6885 283.165 11.6876H274.906C274.725 11.6857 274.545 11.7199 274.378 11.7882C274.21 11.8566 274.058 11.9577 273.93 12.0856C273.802 12.2135 273.701 12.3657 273.633 12.5332C273.565 12.7007 273.53 12.8802 273.532 13.0611V42.6291C273.532 42.9896 273.676 43.3353 273.93 43.5902C274.185 43.8451 274.531 43.9883 274.892 43.9883H283.165C283.526 43.9883 283.872 43.8453 284.127 43.5905C284.383 43.3356 284.527 42.9899 284.528 42.6291V39.775C284.528 37.3776 285.148 35.5142 286.39 34.1847C287.631 32.8552 289.296 32.1916 291.384 32.194C293.485 32.194 295.157 32.8575 296.4 34.1847C297.644 35.5118 298.265 37.3753 298.263 39.775V57.884C298.263 58.2455 298.406 58.5921 298.662 58.8477C298.917 59.1033 299.264 59.2468 299.626 59.2468H307.831C308.192 59.2468 308.539 59.1033 308.795 58.8477C309.05 58.5921 309.194 58.2455 309.194 57.884V38.3016C309.203 33.5496 307.965 29.8132 305.48 27.0923Z" fill="#00CE52"/>
<path d="M349.502 31.5873C347.935 28.8398 345.615 26.5979 342.816 25.1264C339.864 23.6484 336.608 22.8789 333.307 22.8789C330.005 22.8789 326.749 23.6484 323.797 25.1264C320.999 26.598 318.68 28.8399 317.115 31.5873C315.486 34.3914 314.671 37.6367 314.671 41.3232C314.671 45.0477 315.475 48.3037 317.083 51.0912C318.632 53.8188 320.928 56.0468 323.701 57.5128C326.624 59.0399 329.882 59.8125 333.18 59.7604C336.496 59.8069 339.773 59.0349 342.72 57.5128C345.537 56.0438 347.879 53.8028 349.469 51.0519C351.118 48.2478 351.942 45.0037 351.942 41.3196C351.942 37.6355 351.128 34.3914 349.502 31.5873ZM338.546 47.941C337.865 48.6797 337.037 49.2673 336.116 49.6655C335.194 50.0638 334.198 50.2639 333.194 50.2528C332.205 50.2743 331.224 50.0784 330.319 49.679C329.414 49.2795 328.608 48.6862 327.957 47.941C326.566 46.3974 325.87 44.1915 325.87 41.3232C325.87 38.4073 326.576 36.1894 327.989 34.6696C328.674 33.9468 329.5 33.3718 330.416 32.9797C331.331 32.5877 332.318 32.3871 333.314 32.3901C334.31 32.3931 335.294 32.5997 336.208 32.9972C337.121 33.3948 337.943 33.9748 338.624 34.7018C340.051 36.2429 340.765 38.4501 340.765 41.3232C340.765 44.1963 340.025 46.4022 338.546 47.941Z" fill="#00CE52"/>
<path d="M389.695 27.0928C387.185 24.3744 383.833 23.0139 379.638 23.0115C377.439 22.9769 375.263 23.4493 373.277 24.3922C372.465 24.7845 371.699 25.2629 370.99 25.8192C370.789 25.9807 370.547 26.082 370.291 26.1112C370.036 26.1404 369.777 26.0964 369.545 25.9842C369.313 25.8721 369.118 25.6965 368.982 25.4778C368.847 25.2591 368.776 25.0064 368.778 24.749C368.778 24.3881 368.635 24.042 368.38 23.7866C368.125 23.5311 367.78 23.3871 367.419 23.3861H359.156C358.795 23.3861 358.448 23.5297 358.193 23.7853C357.937 24.0409 357.793 24.3875 357.793 24.749V57.881C357.793 58.2424 357.937 58.5891 358.193 58.8446C358.448 59.1002 358.795 59.2438 359.156 59.2438H367.422C367.783 59.2428 368.129 59.0988 368.384 58.8434C368.638 58.5879 368.782 58.2418 368.782 57.881V39.7827C368.782 37.3853 369.403 35.5218 370.647 34.1923C371.891 32.8628 373.556 32.1992 375.642 32.2016C377.74 32.2016 379.405 32.8652 380.637 34.1923C381.869 35.5194 382.491 37.3829 382.502 39.7827V57.8917C382.502 58.2525 382.646 58.5986 382.9 58.8541C383.155 59.1095 383.501 59.2535 383.862 59.2545H392.067C392.429 59.2545 392.775 59.1109 393.031 58.8553C393.286 58.5998 393.43 58.2531 393.43 57.8917V38.3021C393.447 33.5501 392.201 29.8137 389.695 27.0928Z" fill="#00CE52"/>
<path d="M93.9959 50.1453V50.1524H93.9067L93.7033 50.1489L89.3438 50.0918L93.3929 50.1382L93.9959 50.1453Z" fill="white"/>
</svg>
