<svg width="1512" height="1084" viewBox="0 0 1512 1084" fill="none" xmlns="http://www.w3.org/2000/svg">
<path d="M-135.561 313.081L231.82 127.689V315.124L234.758 313.642L603.251 127.689V253.274L606.188 251.792L977.62 64.335L978.732 63.7734V-166.435L975.795 -164.952L607.301 21.002V-104.584L604.364 -103.102L235.87 82.8721V-104.584L232.933 -103.102L-138.498 84.3545L-139.61 84.916V310.566L-506.975 495.979V245.685L-136.673 58.8115L-135.561 58.25V-166.435L-138.498 -164.952L-506.975 21.002V-229.272L-139.61 -414.684V-165.356L-136.673 -166.839L231.82 -352.812V-165.356L234.758 -166.839L603.251 -352.812V-227.229L606.188 -228.711L974.683 -414.684V-165.356L977.62 -166.839L1346.11 -352.812V-165.356L1349.05 -166.839L1717.54 -352.812V-227.229L1720.48 -228.711L2088.97 -414.684V-164.39L1721.59 21.002V-104.584L1718.66 -103.102L1350.16 82.8721V-104.584L1347.23 -103.102L975.795 84.3545L974.683 84.916V315.124L977.619 313.642L1346.11 127.689V315.124L1349.05 313.642L1717.54 127.689V377.962L1350.16 563.375V375.918L1347.23 377.4L978.732 563.375V314.047L975.795 315.529L607.302 501.504L607.301 379.209V375.918L604.364 377.4L235.87 563.375V375.918L232.933 377.4L-135.561 563.375V313.081ZM1721.59 378.982L2088.97 193.591V443.864L1721.59 629.276V378.982Z" fill="#B065FE" stroke="#760499" stroke-width="4.05"/>
<path d="M978.732 1329.42L1346.11 1144.02V1331.46L1349.05 1329.98L1720.48 1142.54L1721.59 1141.98V1012.76L2088.97 827.344V1077.62L1718.66 1264.51L1717.54 1265.07V1394.3L1576.58 1465.44L1350.16 1579.71V1392.25L1347.23 1393.74L1205.15 1465.44L978.732 1579.71V1329.42Z" fill="#B065FE" stroke="#760499" stroke-width="4.05"/>
<path d="M235.869 822.626L232.932 824.108L-135.561 1010.06V822.215L-138.499 823.697L-506.975 1009.67V759.398L-139.611 573.986V761.832L-136.674 760.35L231.821 574.377L231.82 820.002V823.292L234.757 821.81L603.25 635.857V886.131L235.869 1071.54V822.626ZM607.301 887.149L974.682 701.759V823.292L977.619 821.81L1346.11 635.857V823.292L1349.05 821.81L1717.54 635.857V886.131L1350.16 1071.54V884.086L1347.22 885.568L978.732 1071.54V949.987L975.794 951.47L607.301 1137.44V887.149Z" fill="#B065FE" stroke="#760499" stroke-width="4.05"/>
</svg>
