<svg width="41" height="35" viewBox="0 0 41 35" fill="none" xmlns="http://www.w3.org/2000/svg">
<path d="M39.0615 4.72317C38.131 3.6113 36.7656 2.97356 35.3157 2.97356H33.4302V0.702393H7.61306V2.97356H5.68431C4.23439 2.97356 2.86915 3.61122 1.93861 4.72317C1.00806 5.83513 0.620794 7.2913 0.876341 8.71857L2.38579 17.151C2.80314 19.4825 4.82517 21.1747 7.19376 21.1747H13.2138C13.3852 21.1747 13.5552 21.1651 13.7238 21.1476C14.4948 22.024 15.3184 22.8862 16.1827 23.7506C16.811 24.3789 17.3749 24.8968 17.8973 25.3052C17.752 26.0224 17.5887 26.7359 17.4074 27.4448L17.1807 28.3049C17.0992 28.5886 17.0288 28.8678 16.9427 29.1379C16.8528 29.4081 16.7301 29.6693 16.5937 29.9169C16.4561 30.1646 16.3117 30.3987 16.1939 30.6149C16.0852 30.8058 15.9874 31.0028 15.901 31.2048C15.8667 31.2926 15.8302 31.3748 15.8063 31.4508C15.7833 31.5269 15.7671 31.5966 15.7613 31.6597C15.732 31.9118 15.8291 32.0559 15.8291 32.0559C16.3147 32.7782 17.0995 33.3951 18.1328 33.789C20.7119 34.7721 23.862 33.9962 25.1688 32.0559C25.1688 32.0559 25.2658 31.9118 25.2366 31.6597C25.2307 31.5966 25.2145 31.5269 25.1915 31.4508C25.1677 31.3748 25.1312 31.2926 25.0968 31.2048C25.0105 31.0028 24.9127 30.8058 24.8039 30.6149C24.6861 30.3987 24.5417 30.1646 24.4042 29.9169C24.2677 29.6693 24.1449 29.4081 24.0551 29.1379C23.9691 28.8678 23.8988 28.5886 23.8171 28.3049L23.5904 27.4448C23.4117 26.7459 23.2504 26.0426 23.1067 25.3357C23.6401 24.9226 24.2166 24.3947 24.8606 23.7506C25.7239 22.8873 26.5465 22.0262 27.3167 21.1509C27.4727 21.1663 27.6294 21.1743 27.7862 21.1747H33.8063C36.1748 21.1747 38.1968 19.4826 38.6143 17.1509L40.1236 8.71857C40.3792 7.29138 39.992 5.83505 39.0615 4.72317ZM7.19376 17.8467C6.82845 17.847 6.47469 17.7187 6.19454 17.4842C5.9144 17.2498 5.72576 16.9242 5.66173 16.5645L4.1522 8.13216C4.04079 7.5095 4.31642 7.06724 4.49072 6.85903C4.66501 6.65083 5.05173 6.30153 5.68431 6.30153H7.61501C7.66493 11.0009 9.01189 14.6268 11.1599 17.8467H7.19376ZM36.8477 8.13216L35.3385 16.5645C35.2744 16.9242 35.0857 17.2498 34.8056 17.4842C34.5254 17.7187 34.1717 17.847 33.8063 17.8468H29.8834C32.0315 14.6268 33.3785 11.001 33.4284 6.30161H35.3158C35.9483 6.30161 36.3351 6.65091 36.5094 6.85911C36.6837 7.06732 36.9592 7.5095 36.8477 8.13216Z" fill="#FFB636"/>
</svg>
