<svg width="52" height="44" viewBox="0 0 52 44" fill="none" xmlns="http://www.w3.org/2000/svg">
<path d="M34.8325 16.75L22.8325 8.75C22.6065 8.59919 22.3437 8.51261 22.0723 8.49952C21.8009 8.48642 21.531 8.54731 21.2915 8.67566C21.052 8.80401 20.8518 8.99502 20.7124 9.22827C20.573 9.46153 20.4996 9.72827 20.5 10V26C20.4996 26.2717 20.573 26.5385 20.7124 26.7717C20.8518 27.005 21.052 27.196 21.2915 27.3243C21.531 27.4527 21.8009 27.5136 22.0723 27.5005C22.3437 27.4874 22.6065 27.4008 22.8325 27.25L34.8325 19.25C35.0388 19.1132 35.208 18.9274 35.325 18.7093C35.4421 18.4912 35.5033 18.2475 35.5033 18C35.5033 17.7525 35.4421 17.5088 35.325 17.2907C35.208 17.0726 35.0388 16.8868 34.8325 16.75ZM23.5 23.1975V12.8025L31.295 18L23.5 23.1975ZM48 0.5H4C3.07174 0.5 2.1815 0.868749 1.52513 1.52513C0.868749 2.1815 0.5 3.07174 0.5 4V32C0.5 32.9283 0.868749 33.8185 1.52513 34.4749C2.1815 35.1312 3.07174 35.5 4 35.5H48C48.9283 35.5 49.8185 35.1312 50.4749 34.4749C51.1312 33.8185 51.5 32.9283 51.5 32V4C51.5 3.07174 51.1312 2.1815 50.4749 1.52513C49.8185 0.868749 48.9283 0.5 48 0.5ZM48.5 32C48.5 32.1326 48.4473 32.2598 48.3536 32.3536C48.2598 32.4473 48.1326 32.5 48 32.5H4C3.86739 32.5 3.74021 32.4473 3.64645 32.3536C3.55268 32.2598 3.5 32.1326 3.5 32V4C3.5 3.86739 3.55268 3.74021 3.64645 3.64645C3.74021 3.55268 3.86739 3.5 4 3.5H48C48.1326 3.5 48.2598 3.55268 48.3536 3.64645C48.4473 3.74021 48.5 3.86739 48.5 4V32ZM51.5 42C51.5 42.3978 51.342 42.7794 51.0607 43.0607C50.7794 43.342 50.3978 43.5 50 43.5H2C1.60218 43.5 1.22064 43.342 0.93934 43.0607C0.658035 42.7794 0.5 42.3978 0.5 42C0.5 41.6022 0.658035 41.2206 0.93934 40.9393C1.22064 40.658 1.60218 40.5 2 40.5H50C50.3978 40.5 50.7794 40.658 51.0607 40.9393C51.342 41.2206 51.5 41.6022 51.5 42Z" fill="#EDEDED"/>
</svg>
