<svg width="875" height="610" viewBox="0 0 875 610" fill="none" xmlns="http://www.w3.org/2000/svg">
<path d="M852.421 292.13V483.6C852.415 485.977 851.562 488.274 850.015 490.079C848.468 491.884 846.329 493.079 843.981 493.45L235.001 587.75C232.623 588.124 230.19 587.616 228.161 586.32L50.9312 474.52C48.3112 473.03 39.5212 467.12 32.2212 451.78C22.3912 431.13 19.6012 402.78 23.9112 367.48C29.7412 319.82 54.3112 298.73 73.9112 289.48C77.9628 287.568 82.1593 285.98 86.4613 284.73L56.2612 265.93C54.8244 265.032 53.6393 263.784 52.8172 262.302C51.9951 260.821 51.5629 259.154 51.5612 257.46V130.64L27.0012 115.26C25.5862 114.374 24.4156 113.147 23.5964 111.692C22.7772 110.237 22.3353 108.6 22.3112 106.93L21.9712 77.74C21.9432 75.3314 22.7857 72.9935 24.3436 71.1563C25.9016 69.3191 28.0704 68.106 30.4513 67.74L120.451 54.1501C122.818 53.7931 125.234 54.297 127.261 55.5701L129.261 56.8501C129.989 55.4721 131.03 54.2833 132.299 53.3788C133.568 52.4742 135.031 51.8788 136.571 51.6401L171.661 46.27C174.058 45.9021 176.506 46.4174 178.551 47.7201L191.931 56.2901V51.8101C191.939 49.4286 192.796 47.1281 194.349 45.3224C195.902 43.5167 198.048 42.3244 200.401 41.9601L235.491 36.5701C237.834 36.216 240.226 36.705 242.241 37.9501L243.961 39.0101C244.706 37.7006 245.736 36.5761 246.976 35.7207C248.216 34.8653 249.633 34.3011 251.121 34.0701L326.321 22.5401C328.696 22.1812 331.12 22.6887 333.151 23.9701L438.361 90.3201C439.783 91.2225 440.953 92.4692 441.764 93.9446C442.575 95.4201 443.001 97.0764 443.001 98.7601V228.65L450.181 227.54C452.556 227.182 454.981 227.701 457.001 229L501.311 256.76C505.011 249.19 510.921 239.37 519.311 231.76C528.891 223.06 563.121 196.29 601.311 217.84L601.751 218.1L611.751 224.42V211.13C611.759 208.749 612.616 206.448 614.169 204.642C615.722 202.837 617.868 201.644 620.221 201.28L695.421 189.75C697.807 189.387 700.243 189.898 702.281 191.19L847.871 283.72C849.272 284.63 850.422 285.877 851.217 287.346C852.011 288.815 852.426 290.46 852.421 292.13Z" fill="black"/>
<path d="M233.511 609.52C227.534 609.525 221.679 607.829 216.631 604.63L39.7009 493C34.3609 489.84 22.1109 480.88 12.7009 461C1.0809 436.58 -2.36911 404.21 2.4509 364.78C5.54089 339.53 13.6209 318.07 26.4509 300.98C31.3734 294.418 37.0602 288.466 43.3909 283.25C39.2136 280.345 35.8037 276.47 33.4541 271.957C31.1044 267.444 29.8851 262.428 29.9009 257.34V142.52L15.5309 133.52C11.0271 130.723 7.30378 126.831 4.70743 122.209C2.11108 117.586 0.725963 112.382 0.680876 107.08L0.300871 78C0.238474 70.3813 2.91701 62.994 7.84781 57.1857C12.7786 51.3774 19.6331 47.5352 27.1609 46.36L117.161 32.77C119.859 32.359 122.598 32.3019 125.311 32.6C127.833 31.48 130.493 30.6999 133.221 30.28L168.351 24.9C173.363 24.1291 178.487 24.575 183.291 26.2C187.382 23.2645 192.112 21.3418 197.091 20.59L232.181 15.21C234.742 14.8142 237.341 14.737 239.921 14.98C242.438 13.8827 245.087 13.1163 247.801 12.7L323.001 1.16003C330.537 0.01423 338.234 1.62246 344.681 5.69003L449.881 72C454.409 74.8388 458.14 78.7844 460.72 83.4647C463.301 88.1449 464.647 93.4055 464.631 98.75V208.55C465.959 209.143 467.242 209.832 468.471 210.61L494.471 226.86C497.573 222.848 501.013 219.108 504.751 215.68C515.719 205.72 528.525 197.996 542.451 192.94C560.701 186.55 579.101 186.27 596.451 192.01C601.426 185.452 608.769 181.098 616.911 179.88L692.121 168.35C699.677 167.2 707.394 168.819 713.851 172.91L859.461 265.44C863.96 268.287 867.664 272.229 870.226 276.897C872.788 281.564 874.125 286.806 874.111 292.13V483.6C874.148 491.162 871.457 498.485 866.533 504.224C861.609 509.964 854.781 513.736 847.301 514.85L238.341 609.14C236.743 609.394 235.128 609.521 233.511 609.52ZM73.1909 250.94L97.8809 266.32L92.4709 305.48C89.283 306.407 86.1734 307.584 83.1709 309C61.8309 319.13 49.1709 339.69 45.4009 370.11C41.6509 400.81 43.8509 425.84 51.7709 442.48C56.5509 452.48 61.5009 455.62 61.7109 455.75L62.4809 456.21L236.051 565.68L830.771 473.59V298.54L694.301 211.81L633.301 221.16V224.34L600.041 242.61L590.421 236.5C565.651 222.7 542.581 239.73 533.801 247.71C527.801 253.21 523.331 260.81 520.691 266.22L489.751 275.06L449.161 249.6L446.281 250.05L421.331 228.65V105.22L325.261 44.62L254.381 55.49C256.12 55.2283 257.778 54.5747 259.228 53.5786C260.678 52.5825 261.883 51.2699 262.751 49.74L232.871 57.38C234.752 58.0872 236.785 58.2973 238.771 57.99L203.661 63.38C205.533 63.1017 207.308 62.3692 208.832 61.2466C210.355 60.124 211.581 58.6454 212.401 56.94L180.241 74.54L170.571 68.35L139.821 73.06C141.621 72.7846 143.331 72.0923 144.815 71.0384C146.3 69.9845 147.517 68.5981 148.371 66.99L118.101 75.07C119.884 75.6805 121.788 75.852 123.651 75.57L43.7109 87.64L43.8609 100.29L62.9809 112.29L73.1509 130.64L73.1909 250.94Z" fill="black"/>
<path d="M130.171 298C130.171 298 111.341 285.3 86.2812 294.65C55.1712 306.27 31.9111 331.97 31.9111 399.15C31.9111 466.33 76.2512 487.15 107.281 474.79C132.681 464.66 137.521 444.19 137.521 441.37V369.22L104.101 374.74V433.92C104.102 435.735 103.669 437.525 102.839 439.14C102.009 440.754 100.806 442.148 99.3289 443.204C97.8522 444.26 96.1448 444.948 94.3486 445.212C92.5523 445.476 90.7191 445.307 89.0012 444.72C78.1112 441.05 65.3212 428.52 65.3212 389.94C65.3212 323.77 102.921 308.23 130.161 335.47L130.171 298Z" fill="white"/>
<path d="M596.401 226.44C596.401 226.44 577.571 213.74 552.511 223.1C521.391 234.71 498.141 260.42 498.141 327.59C498.141 394.76 542.481 415.59 573.511 403.23C598.911 393.11 603.751 372.63 603.751 369.81V297.63L570.331 303.15V362.32C570.328 364.135 569.894 365.923 569.063 367.537C568.233 369.15 567.03 370.543 565.554 371.599C564.078 372.656 562.372 373.345 560.577 373.612C558.782 373.878 556.949 373.713 555.231 373.13C544.351 369.45 531.561 356.92 531.561 318.35C531.561 252.17 569.161 236.63 596.401 263.87V226.44Z" fill="white"/>
<path d="M357.211 399.77L353.291 389.87L342.931 363.75L340.871 358.56C349.418 352.294 356.42 344.156 361.341 334.77C366.6 324.865 369.327 313.814 369.281 302.6C369.281 284.04 362.281 272.02 352.161 265.08C348.121 262.328 343.635 260.298 338.901 259.08C331.621 257.245 324.046 256.905 316.631 258.08L311.061 258.94L298.591 260.85L275.211 264.42V448.5L288.211 446.5L305.291 443.89L306.431 443.71V367.25L314.971 367.14L317.521 375.08L321.841 388.56L331.931 420L337.661 437.86L337.991 438.86L339.051 438.7L361.001 435.37L370.771 433.88L357.211 399.77ZM307.281 338.84V289.55C307.281 289.55 324.881 284.09 332.701 294.89C334.931 297.97 336.361 302.37 336.361 308.6C336.368 311.074 336.134 313.542 335.661 315.97C334.562 321.93 331.554 327.37 327.091 331.47C321.625 336.289 314.568 338.915 307.281 338.84Z" fill="white"/>
<path d="M478.171 346.87L475.061 334L467.751 303.76L464.931 292.12L456.111 255.66L452.661 241.44L451.661 237.37L429.921 240.7L423.511 266.84L420.031 281.03L405.571 340.03L403.001 350.71L398.401 369.46L396.161 378.59L390.881 400.11L387.201 415L383.001 432L418.091 426.62L425.001 390.84L426.501 382.95L441.271 380.42L450.901 378.77L454.491 394.09L457.011 404.85L460.581 420.1L466.421 419.2L477.281 417.53L494.671 414.86L478.171 346.87ZM446.511 353.87L431.871 356.64L431.471 356.71L431.531 356.42L438.841 319.42L442.181 334.42L444.491 344.8L446.511 353.87Z" fill="white"/>
<path d="M252.671 415L249.511 402L236.381 347.76L231.651 328.21L218.301 273L216.201 273.32L203.591 275.25L196.591 276.32L180.001 343.71L177.501 354L162.881 413.62L159.311 428.19L152.471 456.07L149.811 467L149.661 467.6L184.751 462.22L186.081 455.22L190.351 432.83L193.081 418.55L194.021 418.39L203.691 416.74L217.471 414.38L224.061 442.49L226.791 454.18L227.151 455.69L261.251 450.46L252.671 415ZM198.091 392.29L205.461 355.03L212.771 387.82L213.131 389.45L212.211 389.62L198.091 392.29Z" fill="white"/>
<path d="M621.671 211.13V395.23L702.311 382.84V356.23L653.531 363.71V306.99L682.941 302.48V275.98L653.531 280.38V235.5L696.871 228.85V199.61L621.671 211.13Z" fill="white"/>
<path d="M252.611 43.9499V228.05L333.251 215.65V189.05L284.471 196.53V139.8L313.881 135.3V108.8L284.471 113.2V68.3099L327.811 61.6699V32.4199L252.611 43.9499Z" fill="white"/>
<path d="M122.431 63.9399V93.2L90.7812 97.9699L90.5612 253.1L61.5112 257.42L61.4711 102.4L32.2512 106.81L31.9111 77.6199L122.431 63.9399Z" fill="white"/>
<path d="M236.981 46.4502V230.13L201.881 235.51V155.65L173.151 160.06V239.81L138.061 245.19V61.5202L173.151 56.1402V130.8L201.881 126.4V51.8302L236.981 46.4502Z" fill="white"/>
</svg>
