<svg width="30" height="31" viewBox="0 0 30 31" fill="none" xmlns="http://www.w3.org/2000/svg">
<path d="M8.25 2.75C7.65326 2.75 7.08097 2.98705 6.65901 3.40901C6.23705 3.83097 6 4.40326 6 5C6 5.59674 6.23705 6.16903 6.65901 6.59099C7.08097 7.01295 7.65326 7.25 8.25 7.25C8.84674 7.25 9.41903 7.01295 9.84099 6.59099C10.2629 6.16903 10.5 5.59674 10.5 5C10.5 4.40326 10.2629 3.83097 9.84099 3.40901C9.41903 2.98705 8.84674 2.75 8.25 2.75ZM3.75 5C3.75 3.80653 4.22411 2.66193 5.06802 1.81802C5.91193 0.974106 7.05653 0.5 8.25 0.5C9.44347 0.5 10.5881 0.974106 11.432 1.81802C12.2759 2.66193 12.75 3.80653 12.75 5C12.75 6.19347 12.2759 7.33807 11.432 8.18198C10.5881 9.0259 9.44347 9.5 8.25 9.5C7.05653 9.5 5.91193 9.0259 5.06802 8.18198C4.22411 7.33807 3.75 6.19347 3.75 5ZM2.652 11C1.185 11 0 12.1865 0 13.652V14.192C0 14.5025 8.9407e-08 16.304 1.05 18.0545C1.872 19.4195 3.2655 20.645 5.5125 21.194C5.82052 20.3761 6.37776 19.6756 7.1055 19.1915C4.701 18.935 3.564 17.867 2.9805 16.8965C2.2545 15.6875 2.25 14.4005 2.25 14.1875V13.652C2.25 13.43 2.43 13.25 2.652 13.25H9.045C9.14512 12.457 9.40266 11.6921 9.8025 11H2.652ZM20.1975 11C20.589 11.678 20.853 12.4385 20.9535 13.25H27.348C27.57 13.25 27.75 13.43 27.75 13.652V14.1875C27.75 14.4005 27.7455 15.6875 27.0195 16.895C26.436 17.867 25.299 18.935 22.8945 19.1915C23.6145 19.6715 24.1785 20.3705 24.4875 21.194C26.7345 20.645 28.128 19.4195 28.9485 18.0545C30 16.304 30 14.504 30 14.1905V13.6505C30 12.188 28.8135 11 27.348 11H20.1975ZM19.5 5C19.5 4.40326 19.7371 3.83097 20.159 3.40901C20.581 2.98705 21.1533 2.75 21.75 2.75C22.3467 2.75 22.919 2.98705 23.341 3.40901C23.7629 3.83097 24 4.40326 24 5C24 5.59674 23.7629 6.16903 23.341 6.59099C22.919 7.01295 22.3467 7.25 21.75 7.25C21.1533 7.25 20.581 7.01295 20.159 6.59099C19.7371 6.16903 19.5 5.59674 19.5 5ZM21.75 0.5C20.5565 0.5 19.4119 0.974106 18.568 1.81802C17.7241 2.66193 17.25 3.80653 17.25 5C17.25 6.19347 17.7241 7.33807 18.568 8.18198C19.4119 9.0259 20.5565 9.5 21.75 9.5C22.9435 9.5 24.0881 9.0259 24.932 8.18198C25.7759 7.33807 26.25 6.19347 26.25 5C26.25 3.80653 25.7759 2.66193 24.932 1.81802C24.0881 0.974106 22.9435 0.5 21.75 0.5ZM15 11.75C14.7045 11.75 14.4119 11.8082 14.139 11.9213C13.866 12.0343 13.6179 12.2001 13.409 12.409C13.2001 12.6179 13.0343 12.866 12.9213 13.139C12.8082 13.4119 12.75 13.7045 12.75 14C12.75 14.2955 12.8082 14.5881 12.9213 14.861C13.0343 15.134 13.2001 15.3821 13.409 15.591C13.6179 15.7999 13.866 15.9657 14.139 16.0787C14.4119 16.1918 14.7045 16.25 15 16.25C15.5967 16.25 16.169 16.0129 16.591 15.591C17.0129 15.169 17.25 14.5967 17.25 14C17.25 13.4033 17.0129 12.831 16.591 12.409C16.169 11.9871 15.5967 11.75 15 11.75ZM10.5 14C10.5 12.8065 10.9741 11.6619 11.818 10.818C12.6619 9.97411 13.8065 9.5 15 9.5C16.1935 9.5 17.3381 9.97411 18.182 10.818C19.0259 11.6619 19.5 12.8065 19.5 14C19.5 15.1935 19.0259 16.3381 18.182 17.182C17.3381 18.0259 16.1935 18.5 15 18.5C13.8065 18.5 12.6619 18.0259 11.818 17.182C10.9741 16.3381 10.5 15.1935 10.5 14ZM6.75 22.652C6.75 21.185 7.9365 20 9.402 20H20.598C22.0635 20 23.25 21.1865 23.25 22.652V23.192C23.25 23.5025 23.25 25.304 22.2 27.0545C21.0855 28.9055 18.9195 30.5 15 30.5C11.0805 30.5 8.913 28.9055 7.8 27.0545C6.75 25.304 6.75 23.504 6.75 23.1905V22.652ZM9.402 22.25C9.29563 22.2508 9.19383 22.2934 9.11861 22.3686C9.04339 22.4438 9.00079 22.5456 9 22.652V23.1875C9 23.4005 9.0045 24.6875 9.7305 25.895C10.3995 27.0095 11.796 28.25 15 28.25C18.204 28.25 19.6005 27.0095 20.2695 25.895C20.9955 24.6875 21 23.4005 21 23.1875V22.652C20.9992 22.5456 20.9566 22.4438 20.8814 22.3686C20.8062 22.2934 20.7044 22.2508 20.598 22.25H9.402Z" fill="#4A4A4A"/>
</svg>
