<svg width="35" height="34" viewBox="0 0 35 34" fill="none" xmlns="http://www.w3.org/2000/svg">
<path d="M13.2953 0.930664C12.768 2.06059 12.0789 3.69606 11.4883 5.35051C11.207 6.1359 10.9539 6.93043 10.75 7.65465C16.4312 9.48277 18.5687 9.48277 24.25 7.65465C24.0461 6.93043 23.793 6.1359 23.5117 5.35051C22.9211 3.69606 22.232 2.06059 21.7047 0.930664C19.8414 1.8602 18.7094 2.39738 17.5 2.39738C16.2906 2.39738 15.1586 1.8602 13.2953 0.930664ZM1.76968 8.2734H1.42234C1.3021 8.2734 1.22546 8.28043 1.16078 8.29449L1.13195 8.32965C0.771948 8.80778 0.645386 9.21559 0.645386 9.58121C0.645386 9.93981 0.778979 10.3054 1.0771 10.6992C1.67335 11.4797 2.95656 12.3093 4.65742 12.9843C8.05703 14.3484 13.0773 15.1922 17.5 15.1922C21.9227 15.1922 26.943 14.3484 30.3461 12.9843C32.0477 12.3093 33.3273 11.4797 33.925 10.6992C34.2203 10.3054 34.3539 9.93981 34.3539 9.58121C34.3539 9.21559 34.2273 8.80778 33.8687 8.32965L33.8406 8.29449C33.7 8.2734 33.4187 8.25934 33.0391 8.28043C32.2094 8.32965 30.9437 8.50543 29.3969 8.71637C28.3562 8.85699 27.182 9.01871 25.9164 9.16637C25.9727 9.53903 26.0078 9.88356 26.0078 10.2V10.5375L25.7266 10.7273C23.8211 11.9929 20.6711 12.5203 17.5 12.5203C14.3289 12.5203 11.1789 11.9929 9.27343 10.7273L8.99218 10.5375V10.2C8.99218 9.88356 9.02734 9.53903 9.08359 9.16637C7.81796 9.01871 6.64375 8.85699 5.60242 8.71637C4.05484 8.50543 2.78992 8.32965 1.95882 8.28043C1.89343 8.2734 1.83015 8.26637 1.76968 8.2734ZM10.4406 8.87809C10.3633 9.24371 10.307 9.56715 10.2789 9.84137C11.8328 10.7203 14.6664 11.2547 17.5 11.2547C20.3336 11.2547 23.1672 10.7203 24.7211 9.84137C24.693 9.56715 24.6367 9.24371 24.5594 8.87809C18.843 10.6992 16.157 10.6992 10.4406 8.87809ZM9.13281 17.1609C9.14687 18.1453 9.2664 19.0875 9.47734 19.9875C10.4969 19.9593 11.5797 19.7132 12.6344 19.3125C13.2109 19.0875 13.7734 18.8203 14.3148 18.525C13.8859 18.5953 13.443 18.6375 13 18.6375C11.9664 18.6375 10.4617 17.9273 9.13281 17.1609ZM25.8672 17.1609C24.5383 17.9273 23.0336 18.6375 22 18.6375C21.557 18.6375 21.1141 18.5953 20.6852 18.525C21.2266 18.8203 21.7891 19.0875 22.3656 19.3125C23.4203 19.7132 24.4961 19.9593 25.5227 19.9875C25.7336 19.0875 25.8531 18.1453 25.8672 17.1609ZM17.9852 18.2367C18.1047 19.9312 19.4547 21.1547 21.1492 22.35C18.6039 21.9703 16.9797 20.8875 16.3328 18.75C15.3695 19.432 14.2586 20.0367 13.0844 20.4937C11.7344 21.014 10.293 21.3164 8.89375 21.239C9.47734 21.9914 9.99765 22.6804 10.4687 23.3273C12.2406 24.6773 13.682 25.9148 17.6898 26.5195C16.0023 26.7797 14.0898 26.9554 12.5922 26.4562C13.7172 28.2703 14.575 31.0687 15.6367 33.1922H19.3633C19.9187 32.0742 20.418 29.9648 20.9312 29.0156C19.7641 29.9718 18.5055 30.1828 17.5633 30.0843C19.9609 29.0578 21.318 27.4547 22.7664 25.8937C23.6383 24.5367 24.6859 23.0601 26.1062 21.239C24.707 21.3164 23.2656 21.014 21.9156 20.4937C20.4461 19.9242 19.082 19.1156 17.9852 18.2367ZM33.3836 19.5023C32.9969 19.5023 32.5609 19.5445 32.0758 19.6218C30.9719 19.8047 29.643 20.1632 28.1875 20.6273L28.1172 20.7187C27.2594 21.7945 26.5211 22.7437 25.8812 23.6086C26.9641 24.2765 27.632 25.0359 28.3422 25.7812C27.3227 25.3804 26.4156 24.9586 25.15 24.614C24.7914 25.1203 24.4609 25.5984 24.1586 26.0554C24.8336 26.3156 25.5578 26.5265 26.3242 26.7093C28.2156 27.1664 30.2617 27.4195 32.0547 27.8765C30.7891 25.964 29.0031 23.9953 26.8305 22.4625C28.2437 22.1742 29.6852 21.8578 30.9578 21.4148C32.357 20.9297 33.482 20.3039 34.1359 19.5515C34.0094 19.5375 33.8969 19.5164 33.7562 19.5093C33.6367 19.5023 33.5172 19.5023 33.3836 19.5023Z" fill="#4A4A4A"/>
</svg>
