<svg width="26" height="31" viewBox="0 0 26 31" fill="none" xmlns="http://www.w3.org/2000/svg">
<path d="M24.685 8.195C24.5437 8.01624 24.3636 7.872 24.1583 7.77323C23.953 7.67447 23.7278 7.62378 23.5 7.625H7V6.875C7.00187 6.22202 7.21674 5.58748 7.61198 5.06771C8.00723 4.54793 8.56127 4.1713 9.19 3.995C9.59392 4.38475 10.1289 4.60945 10.69 4.625H12.19C12.7867 4.625 13.359 4.38795 13.781 3.96599C14.2029 3.54404 14.44 2.97174 14.44 2.375C14.44 1.77826 14.2029 1.20597 13.781 0.78401C13.359 0.362053 12.7867 0.125 12.19 0.125H10.69C10.3518 0.125465 10.0182 0.202655 9.71422 0.350756C9.41022 0.498856 9.14379 0.714006 8.935 0.98C7.5524 1.22937 6.30114 1.95601 5.39932 3.03327C4.49749 4.11053 4.00228 5.47009 4 6.875V7.625H2.5C2.27217 7.62378 2.04704 7.67447 1.84172 7.77323C1.63639 7.872 1.45626 8.01624 1.31501 8.195C1.16474 8.37311 1.05804 8.58378 1.00336 8.8103C0.948686 9.03682 0.947536 9.27296 1.00001 9.5L1.93 13.235C2.15206 14.0953 2.62383 14.8706 3.28583 15.4632C3.94784 16.0558 4.77046 16.4392 5.65 16.565L6.82 27.065H5.5C5.10218 27.065 4.72065 27.223 4.43934 27.5044C4.15804 27.7857 4 28.1672 4 28.565C4 28.9628 4.15804 29.3444 4.43934 29.6257C4.72065 29.907 5.10218 30.065 5.5 30.065H20.5C20.8978 30.065 21.2794 29.907 21.5607 29.6257C21.842 29.3444 22 28.9628 22 28.565C22 28.1672 21.842 27.7857 21.5607 27.5044C21.2794 27.223 20.8978 27.065 20.5 27.065H19.18L20.35 16.565C21.2233 16.4299 22.0376 16.0406 22.6911 15.4458C23.3446 14.8509 23.8086 14.0768 24.025 13.22L25 9.5C25.0525 9.27296 25.0513 9.03682 24.9966 8.8103C24.942 8.58378 24.8353 8.37311 24.685 8.195ZM16.15 27.125H9.85L8.68 16.625H17.32L16.15 27.125ZM21.115 12.5C21.0329 12.8328 20.8392 13.1275 20.5663 13.3349C20.2934 13.5423 19.9576 13.65 19.615 13.64H6.34C5.99735 13.65 5.66162 13.5423 5.3887 13.3349C5.11577 13.1275 4.92213 12.8328 4.84 12.5L4.42 10.625H21.58L21.115 12.5Z" fill="url(#paint0_linear_1644_522)"/>
<defs>
<linearGradient id="paint0_linear_1644_522" x1="13" y1="0.125" x2="13" y2="30.065" gradientUnits="userSpaceOnUse">
<stop/>
<stop offset="1" stop-color="#1B1A1A"/>
</linearGradient>
</defs>
</svg>
