<svg width="58" height="58" viewBox="0 0 58 58" fill="none" xmlns="http://www.w3.org/2000/svg">
<path d="M18.1249 8.45801C17.1635 8.45801 16.2415 8.83993 15.5617 9.51975C14.8818 10.1996 14.4999 11.1216 14.4999 12.083C14.4999 13.0444 14.8818 13.9665 15.5617 14.6463C16.2415 15.3261 17.1635 15.708 18.1249 15.708C19.0863 15.708 20.0084 15.3261 20.6882 14.6463C21.368 13.9665 21.7499 13.0444 21.7499 12.083C21.7499 11.1216 21.368 10.1996 20.6882 9.51975C20.0084 8.83993 19.0863 8.45801 18.1249 8.45801ZM10.8749 12.083C10.8749 10.1602 11.6388 8.31612 12.9984 6.95648C14.358 5.59685 16.2021 4.83301 18.1249 4.83301C20.0477 4.83301 21.8918 5.59685 23.2514 6.95648C24.6111 8.31612 25.3749 10.1602 25.3749 12.083C25.3749 14.0058 24.6111 15.8499 23.2514 17.2095C21.8918 18.5692 20.0477 19.333 18.1249 19.333C16.2021 19.333 14.358 18.5692 12.9984 17.2095C11.6388 15.8499 10.8749 14.0058 10.8749 12.083ZM9.10592 21.7497C6.74242 21.7497 4.83325 23.6613 4.83325 26.0223V26.8923C4.83325 27.3926 4.83325 30.295 6.52492 33.1153C7.84925 35.3144 10.0943 37.2888 13.7145 38.1733C14.2108 36.8555 15.1085 35.727 16.281 34.9471C12.4071 34.5338 10.5753 32.8132 9.63517 31.2496C8.4655 29.3018 8.45825 27.2283 8.45825 26.8851V26.0223C8.45825 25.6647 8.74825 25.3747 9.10592 25.3747H19.4058C19.5671 24.0971 19.982 22.8647 20.6262 21.7497H9.10592ZM37.3737 21.7497C38.0044 22.842 38.4298 24.0673 38.5917 25.3747H48.8939C49.2516 25.3747 49.5416 25.6647 49.5416 26.0223V26.8851C49.5416 27.2283 49.5343 29.3018 48.3647 31.2472C47.4246 32.8132 45.5928 34.5338 41.7188 34.9471C42.8788 35.7204 43.7875 36.8466 44.2853 38.1733C47.9055 37.2888 50.1506 35.3144 51.4725 33.1153C53.1666 30.295 53.1666 27.395 53.1666 26.8899V26.0199C53.1666 23.6637 51.255 21.7497 48.8939 21.7497H37.3737ZM36.2499 12.083C36.2499 11.1216 36.6318 10.1996 37.3117 9.51975C37.9915 8.83993 38.9135 8.45801 39.8749 8.45801C40.8363 8.45801 41.7584 8.83993 42.4382 9.51975C43.118 10.1996 43.4999 11.1216 43.4999 12.083C43.4999 13.0444 43.118 13.9665 42.4382 14.6463C41.7584 15.3261 40.8363 15.708 39.8749 15.708C38.9135 15.708 37.9915 15.3261 37.3117 14.6463C36.6318 13.9665 36.2499 13.0444 36.2499 12.083ZM39.8749 4.83301C37.9521 4.83301 36.108 5.59685 34.7484 6.95648C33.3888 8.31612 32.6249 10.1602 32.6249 12.083C32.6249 14.0058 33.3888 15.8499 34.7484 17.2095C36.108 18.5692 37.9521 19.333 39.8749 19.333C41.7977 19.333 43.6418 18.5692 45.0014 17.2095C46.3611 15.8499 47.1249 14.0058 47.1249 12.083C47.1249 10.1602 46.3611 8.31612 45.0014 6.95648C43.6418 5.59685 41.7977 4.83301 39.8749 4.83301ZM28.9999 22.958C28.5239 22.958 28.0525 23.0518 27.6127 23.2339C27.1729 23.4161 26.7733 23.6831 26.4367 24.0197C26.1 24.3564 25.833 24.756 25.6509 25.1958C25.4687 25.6356 25.3749 26.107 25.3749 26.583C25.3749 27.0591 25.4687 27.5304 25.6509 27.9702C25.833 28.41 26.1 28.8097 26.4367 29.1463C26.7733 29.4829 27.1729 29.7499 27.6127 29.9321C28.0525 30.1142 28.5239 30.208 28.9999 30.208C29.9613 30.208 30.8834 29.8261 31.5632 29.1463C32.243 28.4665 32.6249 27.5444 32.6249 26.583C32.6249 25.6216 32.243 24.6996 31.5632 24.0197C30.8834 23.3399 29.9613 22.958 28.9999 22.958ZM21.7499 26.583C21.7499 24.6602 22.5138 22.8161 23.8734 21.4565C25.233 20.0968 27.0771 19.333 28.9999 19.333C30.9227 19.333 32.7668 20.0968 34.1264 21.4565C35.4861 22.8161 36.2499 24.6602 36.2499 26.583C36.2499 28.5058 35.4861 30.3499 34.1264 31.7095C32.7668 33.0692 30.9227 33.833 28.9999 33.833C27.0771 33.833 25.233 33.0692 23.8734 31.7095C22.5138 30.3499 21.7499 28.5058 21.7499 26.583ZM15.7083 40.5223C15.7083 38.1588 17.6198 36.2497 19.9809 36.2497H38.0189C40.38 36.2497 42.2916 38.1613 42.2916 40.5223V41.3923C42.2916 41.8926 42.2916 44.795 40.5999 47.6153C38.8043 50.5974 35.3147 53.1663 28.9999 53.1663C22.6852 53.1663 19.1931 50.5974 17.3999 47.6153C15.7083 44.795 15.7083 41.895 15.7083 41.3899V40.5223ZM19.9809 39.8747C19.8095 39.8759 19.6455 39.9446 19.5243 40.0658C19.4032 40.187 19.3345 40.351 19.3333 40.5223V41.3851C19.3333 41.7283 19.3405 43.8018 20.5102 45.7472C21.588 47.5428 23.8379 49.5413 28.9999 49.5413C34.1619 49.5413 36.4118 47.5428 37.4897 45.7472C38.6593 43.8018 38.6666 41.7283 38.6666 41.3851V40.5223C38.6653 40.351 38.5967 40.187 38.4755 40.0658C38.3543 39.9446 38.1903 39.8759 38.0189 39.8747H19.9809Z" fill="white"/>
</svg>
