<svg width="35" height="35" viewBox="0 0 35 35" fill="none" xmlns="http://www.w3.org/2000/svg">
<path fill-rule="evenodd" clip-rule="evenodd" d="M7.99568 1.20227C14.3124 0.502889 20.6869 0.502889 27.0036 1.20227C30.501 1.59427 33.3225 4.34848 33.7329 7.8581C34.4814 14.2648 34.4814 20.7369 33.7329 27.1437C33.3225 30.6533 30.501 33.4075 27.0036 33.7995C20.6869 34.4989 14.3124 34.4989 7.99568 33.7995C4.49831 33.4075 1.67673 30.6533 1.26635 27.1437C0.517987 20.7376 0.517987 14.2662 1.26635 7.86015C1.47392 6.15509 2.25121 4.57009 3.47223 3.36204C4.69326 2.15398 6.28646 1.39366 7.99364 1.20431M10.2926 10.2938C10.5797 10.0071 10.9689 9.84599 11.3746 9.84599C11.7804 9.84599 12.1696 10.0071 12.4567 10.2938L17.4996 15.3367L22.5426 10.2938C22.6827 10.1434 22.8518 10.0227 23.0396 9.93901C23.2275 9.85532 23.4302 9.81031 23.6358 9.80669C23.8414 9.80306 24.0456 9.84088 24.2363 9.91789C24.427 9.99491 24.6002 10.1095 24.7456 10.2549C24.891 10.4003 25.0056 10.5735 25.0826 10.7642C25.1596 10.9549 25.1975 11.1591 25.1938 11.3647C25.1902 11.5703 25.1452 11.7731 25.0615 11.9609C24.9778 12.1487 24.8572 12.3178 24.7067 12.458L19.6638 17.5009L24.7067 22.5438C24.9772 22.8341 25.1245 23.218 25.1175 23.6147C25.1105 24.0114 24.9497 24.3899 24.6692 24.6705C24.3886 24.951 24.0101 25.1117 23.6135 25.1187C23.2168 25.1257 22.8328 24.9785 22.5426 24.708L17.4996 19.6651L12.4567 24.708C12.3165 24.8584 12.1475 24.9791 11.9597 25.0628C11.7718 25.1465 11.5691 25.1915 11.3635 25.1951C11.1579 25.1987 10.9536 25.1609 10.763 25.0839C10.5723 25.0069 10.3991 24.8923 10.2537 24.7469C10.1083 24.6014 9.99365 24.4282 9.91664 24.2376C9.83963 24.0469 9.8018 23.8427 9.80543 23.6371C9.80906 23.4315 9.85406 23.2287 9.93775 23.0409C10.0214 22.8531 10.1421 22.684 10.2926 22.5438L15.3355 17.5009L10.2926 12.458C10.0058 12.1709 9.84474 11.7817 9.84474 11.3759C9.84474 10.9701 10.0058 10.5809 10.2926 10.2938Z" fill="black"/>
</svg>
