<svg width="419" height="114" viewBox="0 0 419 114" fill="none" xmlns="http://www.w3.org/2000/svg">
<path d="M415.918 57.3063C413.981 64.265 408.282 71.5226 398.562 78.4597C388.846 85.3941 375.266 91.889 357.95 97.2729C323.326 108.038 274.134 114.246 212.038 110.884C149.89 107.518 95.4129 98.2945 57.5838 86.1382C38.6551 80.0555 23.9996 73.2713 14.6314 66.1886C5.1588 59.027 1.58958 51.957 3.41279 45.4078C5.236 38.8585 12.5771 32.3794 25.6963 26.4412C38.6711 20.5686 56.6124 15.5497 78.3152 11.6674C121.688 3.90868 179.606 0.772108 241.754 4.13782C303.982 7.50778 349.817 13.6644 378.994 22.7346C393.593 27.2728 403.863 32.4939 409.953 38.3368C415.997 44.1353 417.831 50.4344 415.918 57.3063Z" stroke="#02641C" stroke-width="4"/>
</svg>
