<svg width="25" height="24" viewBox="0 0 25 24" fill="none" xmlns="http://www.w3.org/2000/svg">
<path d="M12.5003 0.416992C10.9135 0.416992 9.34225 0.729537 7.87623 1.33678C6.41022 1.94403 5.07816 2.83408 3.95612 3.95612C1.69005 6.22218 0.416992 9.29563 0.416992 12.5003C0.416992 17.8412 3.88491 22.3724 8.68199 23.9795C9.28616 24.0762 9.47949 23.7016 9.47949 23.3753V21.3332C6.13241 22.0582 5.41949 19.7141 5.41949 19.7141C4.86366 18.3124 4.07824 17.9378 4.07824 17.9378C2.97866 17.1887 4.16283 17.2128 4.16283 17.2128C5.37116 17.2974 6.01158 18.4574 6.01158 18.4574C7.06283 20.2941 8.83908 19.7503 9.52782 19.4603C9.63657 18.6749 9.95074 18.1432 10.2891 17.8412C7.60658 17.5391 4.79116 16.4999 4.79116 11.8962C4.79116 10.5549 5.25033 9.47949 6.03574 8.62158C5.91491 8.31949 5.49199 7.06283 6.15658 5.43158C6.15658 5.43158 7.17158 5.10533 9.47949 6.66408C10.4341 6.39824 11.4732 6.26533 12.5003 6.26533C13.5274 6.26533 14.5666 6.39824 15.5212 6.66408C17.8291 5.10533 18.8441 5.43158 18.8441 5.43158C19.5087 7.06283 19.0857 8.31949 18.9649 8.62158C19.7503 9.47949 20.2095 10.5549 20.2095 11.8962C20.2095 16.512 17.382 17.527 14.6874 17.8291C15.1224 18.2037 15.5212 18.9407 15.5212 20.0645V23.3753C15.5212 23.7016 15.7145 24.0882 16.3307 23.9795C21.1278 22.3603 24.5837 17.8412 24.5837 12.5003C24.5837 10.9135 24.2711 9.34225 23.6639 7.87623C23.0566 6.41022 22.1666 5.07816 21.0445 3.95612C19.9225 2.83408 18.5904 1.94403 17.1244 1.33678C15.6584 0.729537 14.0871 0.416992 12.5003 0.416992Z" fill="#898B8A"/>
</svg>
