<svg width="45" height="45" viewBox="0 0 45 45" fill="none" xmlns="http://www.w3.org/2000/svg">
<path d="M17.244 3.03809C16.5849 4.45049 15.7235 6.49482 14.9853 8.56289C14.6337 9.54463 14.3173 10.5378 14.0624 11.4431C21.164 13.7282 23.8358 13.7282 30.9374 11.4431C30.6825 10.5378 30.3661 9.54463 30.0146 8.56289C29.2763 6.49482 28.4149 4.45049 27.7558 3.03809C25.4267 4.2 24.0116 4.87148 22.4999 4.87148C20.9882 4.87148 19.5731 4.2 17.244 3.03809ZM2.83701 12.2165H2.40283C2.25254 12.2165 2.15674 12.2253 2.07588 12.2429L2.03984 12.2868C1.58984 12.8845 1.43164 13.3942 1.43164 13.8513C1.43164 14.2995 1.59863 14.7565 1.97129 15.2487C2.7166 16.2243 4.32061 17.2614 6.44668 18.1052C10.6962 19.8103 16.9716 20.8649 22.4999 20.8649C28.0282 20.8649 34.3036 19.8103 38.5575 18.1052C40.6845 17.2614 42.2841 16.2243 43.0312 15.2487C43.4003 14.7565 43.5673 14.2995 43.5673 13.8513C43.5673 13.3942 43.4091 12.8845 42.9608 12.2868L42.9257 12.2429C42.7499 12.2165 42.3983 12.1989 41.9237 12.2253C40.8866 12.2868 39.3046 12.5065 37.371 12.7702C36.0702 12.946 34.6024 13.1481 33.0204 13.3327C33.0907 13.7985 33.1347 14.2292 33.1347 14.6247V15.0466L32.7831 15.2839C30.4013 16.8659 26.4638 17.5251 22.4999 17.5251C18.536 17.5251 14.5985 16.8659 12.2167 15.2839L11.8651 15.0466V14.6247C11.8651 14.2292 11.9091 13.7985 11.9794 13.3327C10.3974 13.1481 8.92959 12.946 7.62793 12.7702C5.69346 12.5065 4.11231 12.2868 3.07344 12.2253C2.9917 12.2165 2.9126 12.2077 2.83701 12.2165ZM13.6757 12.9724C13.579 13.4294 13.5087 13.8337 13.4735 14.1765C15.4159 15.2751 18.9579 15.9431 22.4999 15.9431C26.0419 15.9431 29.5839 15.2751 31.5263 14.1765C31.4911 13.8337 31.4208 13.4294 31.3241 12.9724C24.1786 15.2487 20.8212 15.2487 13.6757 12.9724ZM12.0409 23.3259C12.0585 24.5564 12.2079 25.7341 12.4716 26.8591C13.746 26.8239 15.0995 26.5163 16.4179 26.0153C17.1386 25.7341 17.8417 25.4001 18.5185 25.031C17.9823 25.1188 17.4286 25.1716 16.8749 25.1716C15.5829 25.1716 13.7021 24.2839 12.0409 23.3259ZM32.9589 23.3259C31.2978 24.2839 29.4169 25.1716 28.1249 25.1716C27.5712 25.1716 27.0175 25.1188 26.4813 25.031C27.1581 25.4001 27.8612 25.7341 28.5819 26.0153C29.9003 26.5163 31.245 26.8239 32.5282 26.8591C32.7919 25.7341 32.9413 24.5564 32.9589 23.3259ZM23.1063 24.6706C23.2558 26.7888 24.9433 28.3181 27.0614 29.8122C23.8798 29.3376 21.8495 27.9841 21.0409 25.3122C19.8368 26.1647 18.4481 26.9206 16.9804 27.4919C15.2929 28.1423 13.4911 28.5202 11.7421 28.4235C12.4716 29.364 13.122 30.2253 13.7108 31.0339C15.9257 32.7214 17.7274 34.2683 22.7372 35.0241C20.6278 35.3493 18.2372 35.569 16.3651 34.945C17.7714 37.2126 18.8437 40.7107 20.1708 43.3649H24.829C25.5233 41.9675 26.1474 39.3308 26.789 38.1442C25.33 39.3396 23.7567 39.6032 22.579 39.4802C25.5761 38.197 27.2724 36.1931 29.0829 34.2419C30.1728 32.5456 31.4823 30.6999 33.2577 28.4235C31.5087 28.5202 29.7069 28.1423 28.0194 27.4919C26.1825 26.78 24.4774 25.7692 23.1063 24.6706ZM42.3544 26.2526C41.871 26.2526 41.3261 26.3054 40.7196 26.4021C39.3398 26.6306 37.6786 27.0788 35.8593 27.6589L35.7714 27.7731C34.6991 29.1179 33.7763 30.3044 32.9765 31.3855C34.33 32.2204 35.1649 33.1696 36.0526 34.1013C34.7782 33.6003 33.6444 33.073 32.0624 32.6423C31.6142 33.2751 31.2011 33.8728 30.8232 34.444C31.6669 34.7692 32.5722 35.0329 33.5302 35.2614C35.8944 35.8327 38.4521 36.1491 40.6933 36.7204C39.1112 34.3298 36.8788 31.8689 34.163 29.9528C35.9296 29.5925 37.7314 29.197 39.3222 28.6433C41.0712 28.0368 42.4774 27.2546 43.2948 26.3142C43.1366 26.2966 42.996 26.2702 42.8202 26.2614C42.6708 26.2526 42.5214 26.2526 42.3544 26.2526Z" fill="white"/>
</svg>
