<svg width="41" height="41" viewBox="0 0 41 41" fill="none" xmlns="http://www.w3.org/2000/svg">
<path d="M21.2841 2.83699C21.0568 2.65974 20.7767 2.56348 20.4885 2.56348C20.2002 2.56348 19.9202 2.65974 19.6928 2.83699L1.28125 17.1934L2.87384 19.2075L5.125 17.4522V33.3128C5.12635 33.992 5.39677 34.643 5.87704 35.1233C6.3573 35.6035 7.0083 35.8739 7.6875 35.8753H33.3125C33.9917 35.8739 34.6427 35.6035 35.123 35.1233C35.6032 34.643 35.8736 33.992 35.875 33.3128V17.4637L38.1262 19.219L39.7188 17.2049L21.2841 2.83699ZM23.0625 33.3128H17.9375V23.0628H23.0625V33.3128ZM25.625 33.3128V23.0628C25.625 22.3832 25.355 21.7314 24.8745 21.2508C24.3939 20.7703 23.7421 20.5003 23.0625 20.5003H17.9375C17.2579 20.5003 16.6061 20.7703 16.1255 21.2508C15.645 21.7314 15.375 22.3832 15.375 23.0628V33.3128H7.6875V15.4547L20.5 5.4738L33.3125 15.4675V33.3128H25.625Z" fill="#2CE85E"/>
</svg>
