<svg width="40" height="40" viewBox="0 0 40 40" fill="none" xmlns="http://www.w3.org/2000/svg">
<path d="M8.54545 31.4545V38H38V10.1327H31.4545M3.63636 29.8182L11.8182 20L16.7273 24.9091L23.2727 16.7273L31.4545 26.5455M2 2H31.4545V31.4545H2V2ZM10.1818 13.4545C10.6158 13.4545 11.032 13.2821 11.3389 12.9753C11.6458 12.6684 11.8182 12.2522 11.8182 11.8182C11.8182 11.3842 11.6458 10.968 11.3389 10.6611C11.032 10.3542 10.6158 10.1818 10.1818 10.1818C9.74783 10.1818 9.33161 10.3542 9.02473 10.6611C8.71786 10.968 8.54545 11.3842 8.54545 11.8182C8.54545 12.2522 8.71786 12.6684 9.02473 12.9753C9.33161 13.2821 9.74783 13.4545 10.1818 13.4545Z" stroke="black" stroke-width="3"/>
</svg>
