<svg width="58" height="57" viewBox="0 0 58 57" fill="none" xmlns="http://www.w3.org/2000/svg">
    <circle cx="28.5212" cy="28.5" r="28.5" fill="url(#paint0_linear_311_22)"/>
    <circle cx="28.155" cy="28.1355" r="20.8269" fill="#B2B2B2"/>
    <rect x="7.02124" y="7" width="42" height="42" rx="21" fill="#0B0B0B"/>
    <path d="M29.3578 34.4773L29.4091 34.4258L36.2623 27.537L29.4091 20.6481L29.3858 20.6247L29.3657 20.5984C29.3441 20.5699 29.3165 20.5465 29.285 20.5296C29.2535 20.5127 29.2187 20.5028 29.183 20.5005C29.1473 20.4982 29.1116 20.5036 29.0782 20.5164C29.0447 20.5291 29.0145 20.5489 28.9894 20.5744M29.3578 34.4773L28.9894 20.5744M29.3578 34.4773C29.3257 34.492 29.2906 34.4999 29.2547 34.5C29.1883 34.5002 29.1246 34.4741 29.0776 34.4274C29.0305 34.3807 29.004 34.3171 29.0037 34.2508C29.0035 34.1845 29.0296 34.1208 29.0763 34.0738L29.0766 34.0735L34.4664 28.6387L35.3115 27.7866H34.1114H19.7709C19.7047 27.7866 19.6412 27.7603 19.5944 27.7135C19.5476 27.6667 19.5213 27.6032 19.5213 27.537C19.5213 27.4707 19.5476 27.4073 19.5944 27.3604C19.6412 27.3136 19.7047 27.2873 19.7709 27.2873H34.1114H35.3115L34.4664 26.4352L29.0766 21.0004L29.0496 20.9732L29.0187 20.9504C28.99 20.9291 28.9661 20.9019 28.9488 20.8707C28.9315 20.8394 28.921 20.8047 28.9183 20.7691C28.9155 20.7334 28.9204 20.6976 28.9326 20.664C28.9449 20.6304 28.9643 20.5998 28.9894 20.5744M29.3578 34.4773L28.9894 20.5744" fill="#13B93F" stroke="#13B93F"/>
    <defs>
    <linearGradient id="paint0_linear_311_22" x1="28.5212" y1="0" x2="28.5212" y2="57" gradientUnits="userSpaceOnUse">
    <stop stop-color="#898B8A"/>
    <stop offset="0.337523" stop-color="#6FAE80"/>
    <stop offset="0.662996" stop-color="#61F889"/>
    <stop offset="1" stop-color="#AFC8B5"/>
    </linearGradient>
    </defs>
    </svg>
    