<svg width="226" height="195" viewBox="0 0 226 195" fill="none" xmlns="http://www.w3.org/2000/svg">
<g clip-path="url(#clip0_1109_189)">
<path d="M191.375 0.154297H0.117188V112.796H191.375V0.154297Z" fill="#E6E6E6"/>
<path d="M191.258 0H0V11.6419H191.258V0Z" fill="#2CE85E"/>
<path d="M186.773 15.2188H4.41016V107.193H186.773V15.2188Z" fill="white"/>
<path d="M18.1239 7.71655C19.1874 7.71655 20.0496 6.85441 20.0496 5.79089C20.0496 4.72738 19.1874 3.86523 18.1239 3.86523C17.0604 3.86523 16.1982 4.72738 16.1982 5.79089C16.1982 6.85441 17.0604 7.71655 18.1239 7.71655Z" fill="white"/>
<path d="M25.4335 7.71655C26.497 7.71655 27.3591 6.85441 27.3591 5.79089C27.3591 4.72738 26.497 3.86523 25.4335 3.86523C24.37 3.86523 23.5078 4.72738 23.5078 5.79089C23.5078 6.85441 24.37 7.71655 25.4335 7.71655Z" fill="white"/>
<path d="M10.7948 7.71655C11.8583 7.71655 12.7205 6.85441 12.7205 5.79089C12.7205 4.72738 11.8583 3.86523 10.7948 3.86523C9.73129 3.86523 8.86914 4.72738 8.86914 5.79089C8.86914 6.85441 9.73129 7.71655 10.7948 7.71655Z" fill="white"/>
<path d="M165.505 31.0996H25.6797V34.7517H165.505V31.0996Z" fill="#E6E6E6"/>
<path d="M120.519 40.2305H70.665V43.8825H120.519V40.2305Z" fill="#E6E6E6"/>
<path d="M120.519 58.75H70.665V62.402H120.519V58.75Z" fill="#E6E6E6"/>
<path d="M120.519 68.2363H70.665V71.8884H120.519V68.2363Z" fill="#E6E6E6"/>
<path d="M145.252 49.3613H45.9326V53.0134H145.252V49.3613Z" fill="#E6E6E6"/>
<path d="M165.504 84.8242H139.273V91.3096H165.504V84.8242Z" fill="#2CE85E"/>
<path d="M190.886 190.215L186.481 190.215L184.385 173.223L190.887 173.223L190.886 190.215Z" fill="#9F616A"/>
<path d="M183.335 188.957H191.831V194.306H177.985C177.985 192.888 178.549 191.527 179.552 190.524C180.555 189.521 181.916 188.957 183.335 188.957Z" fill="#2F2E41"/>
<path d="M207.415 190.215L203.01 190.215L200.914 173.223L207.416 173.223L207.415 190.215Z" fill="#9F616A"/>
<path d="M199.864 188.957H208.36V194.306H194.515C194.515 193.604 194.653 192.908 194.922 192.259C195.191 191.61 195.585 191.021 196.081 190.524C196.578 190.027 197.168 189.633 197.817 189.364C198.466 189.095 199.161 188.957 199.864 188.957Z" fill="#2F2E41"/>
<path d="M206.877 139.609C206.402 139.303 206.001 138.898 205.7 138.42C205.399 137.943 205.206 137.405 205.136 136.845C205.065 136.285 205.118 135.717 205.291 135.18C205.464 134.642 205.752 134.15 206.136 133.736L203.235 92.5723L211.591 93.3826L211.82 133.694C212.472 134.385 212.848 135.292 212.877 136.241C212.906 137.191 212.585 138.118 211.976 138.847C211.366 139.576 210.511 140.056 209.571 140.197C208.631 140.337 207.673 140.128 206.877 139.609Z" fill="#9F616A"/>
<path d="M190.678 181.655L185.829 181.424C185.416 181.404 185.026 181.227 184.739 180.929C184.453 180.63 184.292 180.234 184.289 179.82L183.95 130.751C183.949 130.519 183.997 130.288 184.093 130.076C184.189 129.863 184.329 129.674 184.505 129.521C184.681 129.368 184.887 129.255 185.111 129.189C185.334 129.123 185.569 129.106 185.8 129.14L205.201 131.956C205.584 132.01 205.935 132.2 206.19 132.492C206.444 132.784 206.585 133.157 206.586 133.544L209.081 179.012C209.083 179.225 209.042 179.437 208.961 179.634C208.881 179.832 208.762 180.011 208.612 180.163C208.461 180.314 208.283 180.435 208.086 180.517C207.889 180.599 207.677 180.641 207.464 180.641H202.236C201.85 180.642 201.477 180.505 201.183 180.255C200.89 180.004 200.697 179.656 200.638 179.275C200.638 179.275 196.689 145.171 196.147 145.191C195.602 145.201 192.361 180.232 192.361 180.232C192.313 180.624 192.123 180.986 191.827 181.248C191.532 181.51 191.15 181.656 190.755 181.657C190.73 181.657 190.704 181.656 190.678 181.655Z" fill="#2F2E41"/>
<path d="M205.127 106.404C204.931 106.263 204.769 106.08 204.654 105.869C204.538 105.657 204.472 105.422 204.459 105.182L203.847 94.0871C203.786 92.9879 204.135 91.9052 204.825 91.0478C205.515 90.1903 206.499 89.6189 207.586 89.4436C208.672 89.2683 209.786 89.5016 210.711 90.0985C211.636 90.6954 212.307 91.6136 212.595 92.6761L215.284 102.595C215.396 103.009 215.339 103.45 215.126 103.822C214.913 104.194 214.56 104.466 214.147 104.579L206.497 106.653C206.264 106.717 206.02 106.727 205.783 106.684C205.546 106.641 205.322 106.545 205.127 106.404Z" fill="#3F3D56"/>
<path d="M197.981 80.0357C202.855 80.0357 206.806 76.0844 206.806 71.2102C206.806 66.3361 202.855 62.3848 197.981 62.3848C193.107 62.3848 189.155 66.3361 189.155 71.2102C189.155 76.0844 193.107 80.0357 197.981 80.0357Z" fill="#9F616A"/>
<path d="M165.999 88.5504C166.043 88.7443 166.072 88.9414 166.085 89.1398L181.521 98.0447L185.272 95.8848L189.272 101.121L181.246 106.842L163.636 92.9491C162.918 93.2149 162.136 93.2557 161.394 93.0661C160.652 92.8766 159.985 92.4656 159.482 91.8879C158.979 91.3102 158.664 90.5931 158.579 89.8321C158.494 89.071 158.642 88.302 159.005 87.6273C159.367 86.9527 159.926 86.4044 160.608 86.0553C161.29 85.7062 162.061 85.5728 162.821 85.6731C163.58 85.7733 164.291 86.1022 164.858 86.6162C165.426 87.1302 165.824 87.8049 165.999 88.5504Z" fill="#9F616A"/>
<path d="M182.073 97.2863C182.047 97.0467 182.075 96.8043 182.156 96.5771C182.236 96.3499 182.367 96.1437 182.537 95.9736L190.393 88.1156C191.172 87.3372 192.211 86.8744 193.31 86.8167C194.41 86.7589 195.491 87.1102 196.347 87.8029C197.203 88.4955 197.772 89.4804 197.944 90.5677C198.117 91.655 197.88 92.7676 197.281 93.691L191.686 102.312C191.453 102.671 191.086 102.923 190.667 103.013C190.247 103.102 189.81 103.021 189.45 102.788L182.801 98.4732C182.598 98.3424 182.428 98.1679 182.302 97.9625C182.176 97.7571 182.098 97.526 182.073 97.2863Z" fill="#3F3D56"/>
<path d="M204.226 78.1919C202.58 79.9457 199.522 79.0042 199.308 76.6083C199.291 76.4223 199.292 76.2351 199.311 76.0493C199.422 74.988 200.035 74.0245 199.888 72.9039C199.855 72.625 199.751 72.3592 199.587 72.1317C198.275 70.3748 195.195 72.9175 193.957 71.3271C193.197 70.3518 194.09 68.8164 193.507 67.7264C192.738 66.2878 190.461 66.9975 189.032 66.2096C187.443 65.3331 187.538 62.8947 188.584 61.4116C189.86 59.6029 192.097 58.6378 194.306 58.4987C196.515 58.3596 198.709 58.9567 200.771 59.7605C203.114 60.6736 205.438 61.9357 206.88 63.996C208.633 66.5017 208.802 69.8703 207.925 72.8002C207.392 74.5825 205.571 76.7597 204.226 78.1919Z" fill="#2F2E41"/>
<path d="M225.64 194.238H156.29C156.195 194.238 156.103 194.2 156.036 194.133C155.969 194.066 155.931 193.974 155.931 193.879C155.931 193.784 155.969 193.692 156.036 193.625C156.103 193.557 156.195 193.52 156.29 193.52H225.64C225.736 193.52 225.827 193.557 225.894 193.625C225.962 193.692 226 193.784 226 193.879C226 193.974 225.962 194.066 225.894 194.133C225.827 194.2 225.736 194.238 225.64 194.238Z" fill="#3F3D56"/>
<path d="M206.79 85.931C206.637 85.8208 206.48 85.7126 206.321 85.6064C205.474 85.0428 204.556 84.5929 203.592 84.2682V81.9492H196.764V84.1008C194.501 84.7251 192.472 86.001 190.928 87.7698C189.384 89.5387 188.394 91.7223 188.082 94.0492L183.433 128.563C183.403 128.779 183.418 128.998 183.475 129.208C183.532 129.418 183.632 129.615 183.768 129.785C183.9 129.954 184.066 130.095 184.255 130.198C184.443 130.302 184.651 130.366 184.865 130.386C186.476 130.547 189.817 131.171 194.092 133.547C196.149 134.686 198.463 135.277 200.814 135.262C202.68 135.255 204.531 134.926 206.285 134.288C206.582 134.179 206.84 133.984 207.027 133.728C207.214 133.471 207.32 133.166 207.333 132.849C207.501 129.135 208.48 110.016 211.331 98.3541C211.885 96.0664 211.749 93.6659 210.941 91.4551C210.133 89.2443 208.689 87.3222 206.79 85.931Z" fill="#3F3D56"/>
</g>
<defs>
<clipPath id="clip0_1109_189">
<rect width="226" height="194.306" fill="white"/>
</clipPath>
</defs>
</svg>
