<svg width="38" height="38" viewBox="0 0 38 38" fill="none" xmlns="http://www.w3.org/2000/svg">
<path d="M1 11.7754C1.19705 7.79642 1.78632 5.31432 3.55221 3.55221C5.31432 1.78632 7.79642 1.19705 11.7754 1M37 11.7754C36.8029 7.79642 36.2137 5.31432 34.4478 3.55221C32.6857 1.78632 30.2036 1.19705 26.2246 1M26.2246 37C30.2036 36.8029 32.6857 36.2137 34.4478 34.4478C36.2137 32.6857 36.8029 30.2036 37 26.2246M11.7754 37C7.79642 36.8029 5.31432 36.2137 3.55221 34.4478C1.78632 32.6857 1.19705 30.2036 1 26.2246M33.4663 17.7078C33.9267 18.2838 34.1579 18.5737 34.1579 19C34.1579 19.4263 33.9267 19.7162 33.4663 20.2922C31.3954 22.8842 26.1072 28.4737 19 28.4737C11.8928 28.4737 6.60463 22.8842 4.53368 20.2922C4.07326 19.7162 3.84211 19.4263 3.84211 19C3.84211 18.5737 4.07326 18.2838 4.53368 17.7078C6.60463 15.1158 11.8928 9.52632 19 9.52632C26.1072 9.52632 31.3954 15.1158 33.4663 17.7078Z" stroke="#B2B2B2" stroke-width="2" stroke-linecap="round" stroke-linejoin="round"/>
<path d="M22.7909 19C22.7909 17.995 22.3916 17.0311 21.6809 16.3204C20.9703 15.6098 20.0064 15.2105 19.0014 15.2105C17.9964 15.2105 17.0325 15.6098 16.3218 16.3204C15.6112 17.0311 15.2119 17.995 15.2119 19C15.2119 20.005 15.6112 20.9689 16.3218 21.6795C17.0325 22.3902 17.9964 22.7895 19.0014 22.7895C20.0064 22.7895 20.9703 22.3902 21.6809 21.6795C22.3916 20.9689 22.7909 20.005 22.7909 19Z" stroke="#B2B2B2" stroke-width="2" stroke-linecap="round" stroke-linejoin="round"/>
</svg>
