<svg width="29" height="25" viewBox="0 0 29 25" fill="none" xmlns="http://www.w3.org/2000/svg">
<path fill-rule="evenodd" clip-rule="evenodd" d="M23.4412 18.7L27.5358 22.7946L26.1667 24.165L4.24449 2.24546L5.61366 0.875L9.15282 4.41158C10.8646 3.7789 12.6754 3.45611 14.5003 3.45833C20.7107 3.45833 26.0892 7.137 28.7087 12.5C27.5032 14.9774 25.6913 17.1101 23.4412 18.7ZM12.9813 8.24137L18.7589 14.019C19.0472 13.2128 19.1006 12.3413 18.9129 11.506C18.7252 10.6706 18.3041 9.90572 17.6987 9.30031C17.0933 8.6949 16.3284 8.27385 15.4931 8.08615C14.6577 7.89846 13.7862 7.95184 12.98 8.24008L12.9813 8.24137ZM19.8491 20.5897C18.1369 21.2221 16.3256 21.5445 14.5003 21.5417C8.28999 21.5417 2.91149 17.863 0.291992 12.5C1.49746 10.0226 3.30934 7.88993 5.55941 6.3L10.2417 10.981C9.95346 11.7872 9.90008 12.6587 10.0878 13.494C10.2755 14.3294 10.6965 15.0943 11.3019 15.6997C11.9073 16.3051 12.6722 16.7262 13.5076 16.9138C14.3429 17.1015 15.2144 17.0482 16.0206 16.7599L19.8491 20.5884V20.5897Z" fill="white"/>
</svg>
