<svg width="27" height="27" viewBox="0 0 27 27" fill="none" xmlns="http://www.w3.org/2000/svg">
<path d="M13.5 0.5C15.1576 0.5 16.7473 1.15848 17.9194 2.33058C19.0915 3.50268 19.75 5.0924 19.75 6.75C19.75 8.4076 19.0915 9.99731 17.9194 11.1694C16.7473 12.3415 15.1576 13 13.5 13C11.8424 13 10.2527 12.3415 9.08058 11.1694C7.90848 9.99732 7.25 8.4076 7.25 6.75C7.25 5.0924 7.90848 3.50268 9.08058 2.33058C10.2527 1.15848 11.8424 0.5 13.5 0.5ZM13.5 17.375C17.1686 17.375 20.4639 18.1189 22.8234 19.2987C25.2128 20.4934 26.5 22.0516 26.5 23.625V26.5H0.5V23.625C0.5 22.0516 1.78725 20.4934 4.17658 19.2987C6.53613 18.1189 9.83135 17.375 13.5 17.375Z" fill="white" stroke="white"/>
</svg>
