<svg width="28" height="28" viewBox="0 0 28 28" fill="none" xmlns="http://www.w3.org/2000/svg">
<path d="M26.6 28C23.4477 28 20.2872 27.2743 17.1185 25.823C13.9498 24.3717 11.0303 22.3107 8.35975 19.6402C5.71142 16.9697 3.65633 14.0408 2.1945 10.8535C0.7315 7.665 0 4.51383 0 1.4V0H7.76825L9.25225 7.14525L4.53425 11.5378C5.33225 12.9214 6.15883 14.1855 7.014 15.33C7.86917 16.4745 8.75992 17.5064 9.68625 18.4258C10.6219 19.4058 11.6766 20.3216 12.8503 21.1733C14.0239 22.0249 15.3632 22.8649 16.8682 23.6932L21.4375 18.9543L28 20.2773V28H26.6Z" fill="#FAF0F0"/>
</svg>
