<svg width="58" height="57" viewBox="0 0 58 57" fill="none" xmlns="http://www.w3.org/2000/svg">
    <circle cx="28.5" cy="28.5" r="28.5" transform="matrix(-1 0 0 1 57.0212 0)" fill="url(#paint0_linear_297_217)"/>
    <circle cx="20.8269" cy="20.8269" r="20.8269" transform="matrix(-1 0 0 1 49.7144 7.30859)" fill="#B2B2B2"/>
    <rect width="42" height="42" rx="21" transform="matrix(-1 0 0 1 50.0212 7)" fill="#0B0B0B"/>
    <path d="M27.6847 34.4773L27.6334 34.4258L20.7802 27.537L27.6334 20.6481L27.6567 20.6247L27.6767 20.5984C27.6984 20.5699 27.7259 20.5465 27.7575 20.5296C27.789 20.5127 27.8238 20.5028 27.8595 20.5005C27.8951 20.4982 27.9309 20.5036 27.9643 20.5164C27.9977 20.5291 28.028 20.5489 28.0531 20.5744M27.6847 34.4773L28.0531 20.5744M27.6847 34.4773C27.7168 34.492 27.7519 34.4999 27.7878 34.5C27.8541 34.5002 27.9178 34.4741 27.9649 34.4274C28.012 34.3807 28.0385 34.3171 28.0388 34.2508C28.039 34.1845 28.0129 34.1208 27.9661 34.0738L27.9659 34.0735L22.576 28.6387L21.731 27.7866H22.9311H37.2716C37.3378 27.7866 37.4013 27.7603 37.4481 27.7135C37.4949 27.6667 37.5212 27.6032 37.5212 27.537C37.5212 27.4707 37.4949 27.4073 37.4481 27.3604C37.4013 27.3136 37.3378 27.2873 37.2716 27.2873H22.9311H21.731L22.576 26.4352L27.9659 21.0004L27.9929 20.9732L28.0237 20.9504C28.0525 20.9291 28.0763 20.9019 28.0937 20.8707C28.111 20.8394 28.1214 20.8047 28.1242 20.7691C28.127 20.7334 28.1221 20.6976 28.1098 20.664C28.0976 20.6304 28.0782 20.5998 28.0531 20.5744M27.6847 34.4773L28.0531 20.5744" fill="#13B93F" stroke="#13B93F"/>
    <defs>
    <linearGradient id="paint0_linear_297_217" x1="28.5" y1="0" x2="28.5" y2="57" gradientUnits="userSpaceOnUse">
    <stop stop-color="#898B8A"/>
    <stop offset="0.337523" stop-color="#6FAE80"/>
    <stop offset="0.662996" stop-color="#61F889"/>
    <stop offset="1" stop-color="#AFC8B5"/>
    </linearGradient>
    </defs>
    </svg>
    