<svg width="35" height="35" viewBox="0 0 35 35" fill="none" xmlns="http://www.w3.org/2000/svg">
<path d="M23.3333 4.375C23.7201 4.375 24.091 4.52865 24.3645 4.80214C24.638 5.07563 24.7917 5.44656 24.7917 5.83333V7.29167H27.7083C28.4442 7.29143 29.1529 7.56934 29.6925 8.06968C30.232 8.57002 30.5625 9.25582 30.6177 9.98958L30.625 10.2083V27.7083C30.6252 28.4442 30.3473 29.1529 29.847 29.6925C29.3466 30.232 28.6609 30.5625 27.9271 30.6177L27.7083 30.625H7.29167C6.55583 30.6252 5.84709 30.3473 5.30753 29.847C4.76798 29.3466 4.43748 28.6609 4.38229 27.9271L4.375 27.7083V10.2083C4.37477 9.47249 4.65268 8.76376 5.15302 8.2242C5.65336 7.68464 6.33915 7.35415 7.07292 7.29896L7.29167 7.29167H10.2083V5.83333C10.2083 5.44656 10.362 5.07563 10.6355 4.80214C10.909 4.52865 11.2799 4.375 11.6667 4.375C12.0534 4.375 12.4244 4.52865 12.6979 4.80214C12.9714 5.07563 13.125 5.44656 13.125 5.83333V7.29167H21.875V5.83333C21.875 5.44656 22.0286 5.07563 22.3021 4.80214C22.5756 4.52865 22.9466 4.375 23.3333 4.375ZM21.6183 13.6777L15.4321 19.864L13.3685 17.8019C13.0935 17.5362 12.7251 17.3892 12.3427 17.3926C11.9604 17.3959 11.5946 17.5493 11.3242 17.8196C11.0538 18.09 10.9005 18.4558 10.8971 18.8382C10.8938 19.2205 11.0408 19.5889 11.3065 19.864L14.3894 22.9483C14.5262 23.0852 14.6886 23.1939 14.8674 23.268C15.0462 23.3421 15.2378 23.3802 15.4314 23.3802C15.6249 23.3802 15.8165 23.3421 15.9953 23.268C16.1741 23.1939 16.3365 23.0852 16.4733 22.9483L23.6804 15.7398C23.8197 15.6053 23.9308 15.4443 24.0072 15.2664C24.0837 15.0885 24.1239 14.8971 24.1256 14.7035C24.1273 14.5099 24.0904 14.3178 24.017 14.1386C23.9437 13.9594 23.8354 13.7966 23.6985 13.6596C23.5616 13.5227 23.3987 13.4144 23.2195 13.3411C23.0403 13.2678 22.8483 13.2309 22.6546 13.2326C22.461 13.2342 22.2696 13.2745 22.0917 13.3509C21.9138 13.4273 21.7529 13.5384 21.6183 13.6777Z" fill="white"/>
</svg>
