<svg width="28" height="28" viewBox="0 0 28 28" fill="none" xmlns="http://www.w3.org/2000/svg">
<g clip-path="url(#clip0_1000_130)">
<path d="M0 3.0625C0 1.372 1.372 0 3.0625 0H24.9375C26.628 0 28 1.372 28 3.0625V24.9375C28 25.7497 27.6773 26.5287 27.103 27.103C26.5287 27.6773 25.7497 28 24.9375 28H10.0625C9.7144 28 9.38056 27.8617 9.13442 27.6156C8.88828 27.3694 8.75 27.0356 8.75 26.6875C8.75 26.3394 8.88828 26.0056 9.13442 25.7594C9.38056 25.5133 9.7144 25.375 10.0625 25.375H24.9375C25.0535 25.375 25.1648 25.3289 25.2469 25.2469C25.3289 25.1648 25.375 25.0535 25.375 24.9375V11.375H2.625V14.4375C2.625 14.7856 2.48672 15.1194 2.24058 15.3656C1.99444 15.6117 1.6606 15.75 1.3125 15.75C0.964403 15.75 0.630564 15.6117 0.384422 15.3656C0.138281 15.1194 0 14.7856 0 14.4375L0 3.0625ZM11.375 8.75H25.375V3.0625C25.375 2.94647 25.3289 2.83519 25.2469 2.75314C25.1648 2.67109 25.0535 2.625 24.9375 2.625H11.375V8.75ZM2.625 8.75H8.75V2.625H3.0625C2.94647 2.625 2.83519 2.67109 2.75314 2.75314C2.67109 2.83519 2.625 2.94647 2.625 3.0625V8.75Z" fill="white"/>
<path d="M2.625 24.0394C2.62499 23.5205 2.72753 23.0068 2.92672 22.5277C3.12591 22.0486 3.41782 21.6136 3.78568 21.2477C4.15354 20.8818 4.59009 20.5922 5.07023 20.3956C5.55038 20.1989 6.06466 20.0991 6.5835 20.1019L7 20.1072V23.4987C7 23.8802 7.455 24.0779 7.735 23.8189L12.7803 19.1342C12.8242 19.0932 12.8593 19.0436 12.8833 18.9885C12.9073 18.9334 12.9197 18.874 12.9197 18.8139C12.9197 18.7538 12.9073 18.6944 12.8833 18.6393C12.8593 18.5842 12.8242 18.5346 12.7803 18.4936L7.735 13.8071C7.67262 13.7493 7.59472 13.7109 7.51084 13.6966C7.42696 13.6824 7.34074 13.6929 7.26274 13.7268C7.18474 13.7608 7.11835 13.8168 7.07168 13.888C7.02501 13.9591 7.0001 14.0423 7 14.1274V17.4821L6.5975 17.4804C5.73291 17.4758 4.87592 17.6421 4.0758 17.9697C3.27567 18.2973 2.54816 18.7798 1.93509 19.3895C1.32202 19.9991 0.835458 20.7239 0.503371 21.5222C0.171285 22.3205 0.000218265 23.1765 0 24.0412L0 25.8122C0 26.1602 0.138281 26.4941 0.384422 26.7402C0.630564 26.9864 0.964404 27.1247 1.3125 27.1247C1.6606 27.1247 1.99444 26.9864 2.24058 26.7402C2.48672 26.4941 2.625 26.1602 2.625 25.8122V24.0394Z" fill="white"/>
</g>
<defs>
<clipPath id="clip0_1000_130">
<rect width="28" height="28" fill="white"/>
</clipPath>
</defs>
</svg>
