<svg width="31" height="30" viewBox="0 0 31 30" fill="none" xmlns="http://www.w3.org/2000/svg">
<path d="M29.342 13.8655L1.87472 0.131858C1.65944 0.0241944 1.41763 -0.018944 1.1784 0.00763702C0.939171 0.034218 0.712725 0.129385 0.526329 0.281679C0.348321 0.430867 0.215457 0.626751 0.142673 0.84731C0.0698883 1.06787 0.0600693 1.30436 0.11432 1.53019L3.42288 13.7282H17.5436V16.2252H3.42288L0.0643794 28.3857C0.0134731 28.5743 0.00753076 28.7722 0.0470304 28.9635C0.0865299 29.1548 0.17037 29.3342 0.291807 29.4872C0.413245 29.6402 0.568892 29.7626 0.746234 29.8445C0.923576 29.9264 1.11766 29.9656 1.31289 29.9588C1.50834 29.9577 1.70078 29.9106 1.87472 29.8215L29.342 16.0879C29.5465 15.9831 29.7181 15.8239 29.838 15.6278C29.9578 15.4318 30.0212 15.2065 30.0212 14.9767C30.0212 14.7469 29.9578 14.5216 29.838 14.3255C29.7181 14.1295 29.5465 13.9703 29.342 13.8655Z" fill="#EDEDED"/>
</svg>
