<svg width="31" height="30" viewBox="0 0 31 30" fill="none" xmlns="http://www.w3.org/2000/svg">
    <path d="M0.70048 13.8655L28.1678 0.131858C28.383 0.0241944 28.6249 -0.018944 28.8641 0.00763702C29.1033 0.034218 29.3298 0.129385 29.5162 0.281679C29.6942 0.430867 29.827 0.626751 29.8998 0.84731C29.9726 1.06787 29.9824 1.30436 29.9282 1.53019L26.6196 13.7282H12.4989V16.2252H26.6196L29.9781 28.3857C30.029 28.5743 30.0349 28.7722 29.9955 28.9635C29.956 29.1548 29.8721 29.3342 29.7507 29.4872C29.6292 29.6402 29.4736 29.7626 29.2962 29.8445C29.1189 29.9264 28.9248 29.9656 28.7296 29.9588C28.5341 29.9577 28.3417 29.9106 28.1678 29.8215L0.70048 16.0879C0.495972 15.9831 0.324345 15.8239 0.2045 15.6278C0.0846539 15.4318 0.0212402 15.2065 0.0212402 14.9767C0.0212402 14.7469 0.0846539 14.5216 0.2045 14.3255C0.324345 14.1295 0.495972 13.9703 0.70048 13.8655Z" fill="black"/>
    </svg>
    