<svg width="24" height="24" viewBox="0 0 24 24" fill="none" xmlns="http://www.w3.org/2000/svg">
    <g clip-path="url(#clip0_697_63)">
    <path d="M17.9199 21.7843C17.6293 21.4564 17.2843 21.1811 16.911 21.1085C16.911 21.1062 16.9114 21.1039 16.9114 21.1015C16.9114 20.5228 16.4423 20.0537 15.8636 20.0537H8.16285C7.58418 20.0537 7.11506 20.5228 7.11506 21.1015C7.11506 21.1039 7.11538 21.1061 7.11543 21.1085C6.74221 21.1811 6.39721 21.4564 6.10654 21.7843C5.62673 22.3256 6.01227 23.1801 6.73565 23.1801H17.2909C18.0142 23.1801 18.3997 22.3256 17.9199 21.7843Z" fill="#E2A042"/>
    <path d="M23.137 4.03356C22.5786 3.36644 21.7595 2.9838 20.8895 2.9838H19.7582V1.62109H4.26791V2.9838H3.11067C2.24071 2.9838 1.42157 3.36639 0.863243 4.03356C0.304915 4.70074 0.0725557 5.57444 0.225884 6.4308L1.13156 11.4903C1.38196 12.8891 2.59518 13.9045 4.01634 13.9045H7.62834C7.73118 13.9045 7.83323 13.8987 7.93434 13.8882C8.39695 14.4141 8.8911 14.9314 9.40968 15.45C9.78665 15.827 10.125 16.1377 10.4384 16.3828C10.3513 16.8131 10.2533 17.2412 10.1445 17.6666L10.0085 18.1826C9.95957 18.3528 9.91734 18.5203 9.86573 18.6824C9.81177 18.8445 9.73813 19.0012 9.65629 19.1498C9.57374 19.2984 9.48712 19.4389 9.41643 19.5686C9.35117 19.6831 9.2925 19.8013 9.2407 19.9226C9.22007 19.9752 9.19823 20.0246 9.18388 20.0702C9.17006 20.1158 9.16035 20.1576 9.15684 20.1955C9.13931 20.3468 9.19753 20.4332 9.19753 20.4332C9.4889 20.8666 9.95981 21.2367 10.5798 21.4731C12.1272 22.0629 14.0173 21.5973 14.8013 20.4332C14.8013 20.4332 14.8596 20.3468 14.842 20.1955C14.8385 20.1576 14.8288 20.1158 14.815 20.0702C14.8007 20.0246 14.7788 19.9752 14.7582 19.9226C14.7064 19.8013 14.6477 19.6831 14.5824 19.5686C14.5117 19.4389 14.4251 19.2984 14.3426 19.1498C14.2607 19.0012 14.187 18.8445 14.1331 18.6824C14.0815 18.5203 14.0393 18.3528 13.9904 18.1826L13.8543 17.6666C13.7471 17.2472 13.6503 16.8252 13.5641 16.4011C13.8841 16.1532 14.23 15.8365 14.6165 15.45C15.1344 14.932 15.628 14.4154 16.0901 13.8902C16.1837 13.8995 16.2777 13.9042 16.3718 13.9045H19.9838C21.4049 13.9045 22.6182 12.8892 22.8687 11.4902L23.7742 6.4308C23.9276 5.57449 23.6953 4.70069 23.137 4.03356ZM4.01634 11.9077C3.79715 11.9079 3.58489 11.8309 3.41681 11.6902C3.24872 11.5495 3.13554 11.3542 3.09712 11.1384L2.1914 6.07895C2.12456 5.70536 2.28993 5.44 2.39451 5.31508C2.49909 5.19016 2.73112 4.98058 3.11067 4.98058H4.26909C4.29904 7.8002 5.10721 9.97572 6.39604 11.9077H4.01634ZM21.8087 6.07895L20.9031 11.1384C20.8647 11.3542 20.7515 11.5495 20.5834 11.6902C20.4153 11.8309 20.2031 11.9079 19.9839 11.9077H17.6301C18.919 9.97577 19.7272 7.80025 19.7571 4.98063H20.8896C21.2691 4.98063 21.5011 5.1902 21.6057 5.31513C21.7103 5.44005 21.8756 5.70536 21.8087 6.07895Z" fill="#FFB636"/>
    <path d="M6.25244 23.0286C6.88399 23.6602 9.33738 23.9059 12.013 23.9059C14.6886 23.9059 17.4211 23.3968 17.8506 22.9674C18.2801 22.5379 15.457 22.5264 15.457 22.5264L6.25244 23.0286Z" fill="#E2A042"/>
    <path d="M11.9998 2.94016C16.2731 2.94016 19.7373 2.34954 19.7373 1.62096C19.7373 0.892385 16.2731 0.301758 11.9998 0.301758C7.72643 0.301758 4.26221 0.892385 4.26221 1.62096C4.26221 2.34954 7.72643 2.94016 11.9998 2.94016Z" fill="#FFD469"/>
    <path d="M17.1802 8.97415C17.0881 8.97415 16.9945 8.9576 16.9034 8.92263C16.5046 8.76968 16.3053 8.32235 16.4583 7.92354C17.031 6.43034 16.9771 5.56634 16.9202 4.65167C16.8936 4.22534 17.2177 3.85817 17.644 3.83159C18.0711 3.80515 18.4375 4.12915 18.464 4.55543C18.5387 5.75356 18.5448 6.80309 17.9025 8.47746C17.7844 8.7852 17.4912 8.97415 17.1802 8.97415Z" fill="#FFD469"/>
    </g>
    <defs>
    <clipPath id="clip0_697_63">
    <rect width="24" height="24" fill="white"/>
    </clipPath>
    </defs>
    </svg>
    