<svg width="59" height="59" viewBox="0 0 59 59" fill="none" xmlns="http://www.w3.org/2000/svg">
<path d="M48.6505 17.5276C48.419 17.2346 48.1237 16.9982 47.7872 16.8364C47.4507 16.6745 47.0818 16.5914 46.7084 16.5934H19.6667V15.3643C19.6698 14.2941 20.0219 13.2542 20.6697 12.4023C21.3175 11.5504 22.2255 10.9332 23.2559 10.6443C23.9179 11.283 24.7947 11.6513 25.7142 11.6768H28.1726C29.1505 11.6768 30.0885 11.2883 30.78 10.5967C31.4715 9.90518 31.86 8.96725 31.86 7.98926C31.86 7.01127 31.4715 6.07334 30.78 5.3818C30.0885 4.69026 29.1505 4.30176 28.1726 4.30176H25.7142C25.16 4.30252 24.6132 4.42903 24.115 4.67175C23.6168 4.91447 23.1802 5.26707 22.838 5.70301C20.572 6.1117 18.5214 7.30258 17.0434 9.06809C15.5654 10.8336 14.7538 13.0618 14.7501 15.3643V16.5934H12.2917C11.9183 16.5914 11.5494 16.6745 11.2129 16.8364C10.8764 16.9982 10.5811 17.2346 10.3496 17.5276C10.1034 17.8195 9.92851 18.1648 9.83889 18.536C9.74928 18.9072 9.7474 19.2943 9.83339 19.6663L11.3576 25.7876C11.7215 27.1975 12.4947 28.4682 13.5796 29.4394C14.6646 30.4106 16.0127 31.0389 17.4542 31.2451L19.3717 48.4534H17.2084C16.5564 48.4534 15.9311 48.7124 15.4701 49.1735C15.0091 49.6345 14.7501 50.2598 14.7501 50.9118C14.7501 51.5638 15.0091 52.1891 15.4701 52.6501C15.9311 53.1111 16.5564 53.3701 17.2084 53.3701H41.7917C42.4437 53.3701 43.069 53.1111 43.53 52.6501C43.991 52.1891 44.25 51.5638 44.25 50.9118C44.25 50.2598 43.991 49.6345 43.53 49.1735C43.069 48.7124 42.4437 48.4534 41.7917 48.4534H39.6284L41.5459 31.2451C42.9772 31.0237 44.3116 30.3857 45.3827 29.4108C46.4538 28.4359 47.2141 27.1672 47.5688 25.763L49.1667 19.6663C49.2527 19.2943 49.2508 18.9072 49.1612 18.536C49.0716 18.1648 48.8967 17.8195 48.6505 17.5276ZM34.6625 48.5518H24.3376L22.4201 31.3434H36.58L34.6625 48.5518ZM42.7996 24.583C42.665 25.1285 42.3477 25.6114 41.9004 25.9513C41.4531 26.2912 40.9029 26.4677 40.3413 26.4514H18.5851C18.0235 26.4677 17.4733 26.2912 17.026 25.9513C16.5787 25.6114 16.2613 25.1285 16.1267 24.583L15.4384 21.5101H43.5617L42.7996 24.583Z" fill="#EDEDED"/>
</svg>
