<svg width="27" height="27" viewBox="0 0 27 27" fill="none" xmlns="http://www.w3.org/2000/svg">
<path d="M19.3333 0.375C19.7201 0.375 20.091 0.528645 20.3645 0.802136C20.638 1.07563 20.7917 1.44656 20.7917 1.83333V3.29167H23.7083C24.4442 3.29143 25.1529 3.56934 25.6925 4.06968C26.232 4.57002 26.5625 5.25582 26.6177 5.98958L26.625 6.20833V23.7083C26.6252 24.4442 26.3473 25.1529 25.847 25.6925C25.3466 26.232 24.6609 26.5625 23.9271 26.6177L23.7083 26.625H3.29167C2.55583 26.6252 1.84709 26.3473 1.30753 25.847C0.767978 25.3466 0.43748 24.6609 0.382292 23.9271L0.375 23.7083V6.20833C0.374767 5.47249 0.652676 4.76376 1.15302 4.2242C1.65336 3.68464 2.33915 3.35415 3.07292 3.29896L3.29167 3.29167H6.20833V1.83333C6.20833 1.44656 6.36198 1.07563 6.63547 0.802136C6.90896 0.528645 7.27989 0.375 7.66667 0.375C8.05344 0.375 8.42437 0.528645 8.69786 0.802136C8.97135 1.07563 9.125 1.44656 9.125 1.83333V3.29167H17.875V1.83333C17.875 1.44656 18.0286 1.07563 18.3021 0.802136C18.5756 0.528645 18.9466 0.375 19.3333 0.375ZM17.6183 9.67771L11.4321 15.864L9.36854 13.8019C9.0935 13.5362 8.72512 13.3892 8.34275 13.3926C7.96038 13.3959 7.59461 13.5493 7.32422 13.8196C7.05384 14.09 6.90046 14.4558 6.89714 14.8382C6.89382 15.2205 7.04081 15.5889 7.30646 15.864L10.3894 18.9483C10.5262 19.0852 10.6886 19.1939 10.8674 19.268C11.0462 19.3421 11.2378 19.3802 11.4314 19.3802C11.6249 19.3802 11.8165 19.3421 11.9953 19.268C12.1741 19.1939 12.3365 19.0852 12.4733 18.9483L19.6804 11.7398C19.8197 11.6053 19.9308 11.4443 20.0072 11.2664C20.0837 11.0885 20.1239 10.8971 20.1256 10.7035C20.1273 10.5099 20.0904 10.3178 20.017 10.1386C19.9437 9.95939 19.8354 9.79656 19.6985 9.65963C19.5616 9.52271 19.3987 9.41442 19.2195 9.34109C19.0403 9.26777 18.8483 9.23087 18.6546 9.23255C18.461 9.23423 18.2696 9.27446 18.0917 9.35089C17.9138 9.42732 17.7529 9.53842 17.6183 9.67771Z" fill="#898B8A"/>
</svg>
