<svg width="28" height="24" viewBox="0 0 28 24" fill="none" xmlns="http://www.w3.org/2000/svg">
<path d="M27.9997 7.02845C27.9496 8.76927 27.2338 10.4246 25.9997 11.6535L21.656 15.9997C21.0233 16.6358 20.2708 17.1401 19.442 17.4834C18.6131 17.8267 17.7244 18.0022 16.8272 17.9997H16.821C15.9085 17.9991 15.0055 17.8156 14.1651 17.46C13.3248 17.1045 12.5642 16.5842 11.9283 15.9298C11.2924 15.2754 10.7942 14.5002 10.4629 13.65C10.1317 12.7998 9.97418 11.8918 9.99974 10.9797C10.0072 10.7145 10.1197 10.4631 10.3125 10.2808C10.5053 10.0986 10.7626 10.0004 11.0279 10.0078C11.2931 10.0153 11.5445 10.1278 11.7267 10.3206C11.909 10.5134 12.0072 10.7707 11.9997 11.036C11.9815 11.6809 12.0928 12.3229 12.3269 12.9241C12.561 13.5252 12.9133 14.0734 13.3628 14.5361C13.8124 14.9989 14.3502 15.3668 14.9444 15.6182C15.5385 15.8696 16.1771 15.9993 16.8222 15.9997C17.4564 16.0013 18.0847 15.8771 18.6706 15.6345C19.2565 15.3918 19.7886 15.0354 20.236 14.586L24.5797 10.2422C25.4759 9.33471 25.9767 8.10951 25.9727 6.83408C25.9687 5.55866 25.4603 4.33662 24.5584 3.43475C23.6566 2.53289 22.4345 2.02446 21.1591 2.02047C19.8837 2.01648 18.6585 2.51725 17.751 3.41345L16.376 4.78845C16.1869 4.96807 15.9352 5.06673 15.6744 5.06339C15.4137 5.06005 15.1645 4.95498 14.9801 4.77058C14.7957 4.58618 14.6906 4.33704 14.6873 4.07627C14.684 3.81551 14.7826 3.56376 14.9622 3.3747L16.3372 1.9997C16.9716 1.36511 17.7248 0.861717 18.5537 0.518269C19.3827 0.17482 20.2712 -0.00195312 21.1685 -0.00195312C22.0658 -0.00195312 22.9543 0.17482 23.7832 0.518269C24.6122 0.861717 25.3654 1.36511 25.9997 1.9997C26.6568 2.6584 27.173 3.44391 27.5168 4.30843C27.8606 5.17296 28.0249 6.09841 27.9997 7.02845ZM11.6247 19.2072L10.2497 20.5822C9.80131 21.0337 9.26758 21.3916 8.67959 21.6349C8.0916 21.8783 7.46109 22.0023 6.82474 21.9997C5.87011 21.9989 4.93714 21.7152 4.14369 21.1844C3.35025 20.6536 2.73193 19.8996 2.36688 19.0175C2.00183 18.1354 1.90642 17.1649 2.0927 16.2287C2.27898 15.2924 2.7386 14.4324 3.41349 13.7572L7.74974 9.41345C8.43272 8.72686 9.30637 8.2615 10.2572 8.07781C11.2081 7.89411 12.1922 8.00057 13.0818 8.38336C13.9714 8.76615 14.7253 9.40757 15.2456 10.2243C15.766 11.0411 16.0287 11.9955 15.9997 12.9635C15.9923 13.2287 16.0905 13.486 16.2727 13.6788C16.455 13.8716 16.7064 13.9841 16.9716 13.9916C17.2368 13.999 17.4941 13.9008 17.687 13.7186C17.8798 13.5363 17.9923 13.2849 17.9997 13.0197C18.0237 12.0911 17.8589 11.1673 17.5151 10.3044C17.1713 9.44146 16.6557 8.65737 15.9997 7.9997C14.7187 6.71923 12.9816 5.99992 11.1704 5.99992C9.35912 5.99992 7.62201 6.71923 6.34099 7.9997L1.99974 12.3435C1.04503 13.2978 0.394632 14.5137 0.13075 15.8375C-0.133132 17.1614 0.00134105 18.5338 0.517175 19.7812C1.03301 21.0286 1.90705 22.0952 3.02885 22.846C4.15065 23.5969 5.46985 23.9984 6.81974 23.9997C7.71708 24.0023 8.60602 23.8269 9.43509 23.4836C10.2642 23.1402 11.0169 22.6359 11.6497 21.9997L13.0247 20.6247C13.1866 20.4341 13.2711 20.1897 13.2617 19.9399C13.2523 19.69 13.1496 19.4527 12.9739 19.2748C12.7982 19.0969 12.5622 18.9913 12.3125 18.9788C12.0627 18.9662 11.8174 19.0477 11.6247 19.2072Z" fill="#898B8A"/>
</svg>
