<svg width="24" height="24" viewBox="0 0 24 24" fill="none" xmlns="http://www.w3.org/2000/svg">
<path d="M11.1663 17.9613V3.54467L7.28301 7.42801L6.10301 6.23134L11.9997 0.333008L17.898 6.23134L16.718 7.42967L12.833 3.54467V17.9613H11.1663ZM3.02634 23.6663C2.25856 23.6663 1.61801 23.4097 1.10467 22.8963C0.591341 22.383 0.334119 21.7419 0.333008 20.973V16.9347H1.99967V20.973C1.99967 21.2297 2.10634 21.4652 2.31967 21.6797C2.53301 21.8941 2.76801 22.0008 3.02467 21.9997H20.9747C21.2302 21.9997 21.4652 21.893 21.6797 21.6797C21.8941 21.4663 22.0008 21.2308 21.9997 20.973V16.9347H23.6663V20.973C23.6663 21.7408 23.4097 22.3813 22.8963 22.8947C22.383 23.408 21.7419 23.6652 20.973 23.6663H3.02634Z" fill="#898B8A"/>
</svg>
