<svg width="25" height="25" viewBox="0 0 25 25" fill="none" xmlns="http://www.w3.org/2000/svg">
<path d="M13.7917 0.875C14.1209 0.875365 14.4375 1.00143 14.6769 1.22743C14.9163 1.45343 15.0604 1.76231 15.0797 2.09097C15.099 2.41962 14.992 2.74324 14.7807 2.9957C14.5694 3.24816 14.2697 3.41041 13.9428 3.44929L13.7917 3.45833H3.45833V21.5417H21.5417V11.2083C21.542 10.8791 21.6681 10.5625 21.8941 10.3231C22.1201 10.0837 22.429 9.93961 22.7576 9.92032C23.0863 9.90102 23.4099 10.008 23.6624 10.2193C23.9148 10.4306 24.0771 10.7303 24.116 11.0572L24.125 11.2083V21.5417C24.1252 22.1934 23.8791 22.8211 23.4359 23.299C22.9927 23.7769 22.3853 24.0697 21.7354 24.1185L21.5417 24.125H3.45833C2.80659 24.1252 2.17885 23.8791 1.70096 23.4359C1.22307 22.9927 0.930339 22.3853 0.881459 21.7354L0.875 21.5417V3.45833C0.874794 2.80659 1.12094 2.17885 1.5641 1.70096C2.00726 1.22307 2.61467 0.930339 3.26458 0.881458L3.45833 0.875H13.7917ZM21.8555 1.31804C22.088 1.08638 22.3999 0.951888 22.7279 0.941872C23.0559 0.931856 23.3755 1.04707 23.6216 1.26411C23.8678 1.48116 24.0221 1.78375 24.0532 2.11045C24.0843 2.43714 23.9899 2.76343 23.7892 3.02304L23.682 3.14575L10.8945 15.932C10.662 16.1636 10.3501 16.2981 10.0221 16.3081C9.69407 16.3181 9.37454 16.2029 9.12839 15.9859C8.88224 15.7688 8.72794 15.4662 8.69682 15.1396C8.6657 14.8129 8.76009 14.4866 8.96083 14.227L9.06804 14.1055L21.8555 1.31804Z" fill="#898B8A"/>
</svg>
