<svg width="44" height="44" viewBox="0 0 44 44" fill="none" xmlns="http://www.w3.org/2000/svg">
<path d="M22.0003 6.87467C21.579 6.87467 21.1618 6.95766 20.7726 7.11889C20.3833 7.28013 20.0296 7.51645 19.7317 7.81437C19.4338 8.11229 19.1974 8.46598 19.0362 8.85523C18.875 9.24448 18.792 9.66168 18.792 10.083C18.792 10.5043 18.875 10.9215 19.0362 11.3108C19.1974 11.7 19.4338 12.0537 19.7317 12.3516C20.0296 12.6496 20.3833 12.8859 20.7726 13.0471C21.1618 13.2084 21.579 13.2913 22.0003 13.2913C22.8512 13.2913 23.6673 12.9533 24.269 12.3516C24.8706 11.75 25.2087 10.9339 25.2087 10.083C25.2087 9.2321 24.8706 8.41605 24.269 7.81437C23.6673 7.21269 22.8512 6.87467 22.0003 6.87467ZM16.5003 10.083C16.5003 8.62432 17.0798 7.22537 18.1112 6.19392C19.1427 5.16247 20.5416 4.58301 22.0003 4.58301C23.459 4.58301 24.858 5.16247 25.8894 6.19392C26.9209 7.22537 27.5003 8.62432 27.5003 10.083C27.5003 11.5417 26.9209 12.9406 25.8894 13.9721C24.858 15.0035 23.459 15.583 22.0003 15.583C20.5416 15.583 19.1427 15.0035 18.1112 13.9721C17.0798 12.9406 16.5003 11.5417 16.5003 10.083ZM33.917 8.70801C33.3092 8.70801 32.7263 8.94945 32.2965 9.37922C31.8668 9.80899 31.6253 10.3919 31.6253 10.9997C31.6253 11.6075 31.8668 12.1904 32.2965 12.6201C32.7263 13.0499 33.3092 13.2913 33.917 13.2913C34.5248 13.2913 35.1077 13.0499 35.5375 12.6201C35.9672 12.1904 36.2087 11.6075 36.2087 10.9997C36.2087 10.3919 35.9672 9.80899 35.5375 9.37922C35.1077 8.94945 34.5248 8.70801 33.917 8.70801ZM29.3337 10.9997C29.3337 9.7841 29.8165 8.61831 30.6761 7.75877C31.5356 6.89923 32.7014 6.41634 33.917 6.41634C35.1326 6.41634 36.2984 6.89923 37.1579 7.75877C38.0174 8.61831 38.5003 9.7841 38.5003 10.9997C38.5003 12.2152 38.0174 13.381 37.1579 14.2406C36.2984 15.1001 35.1326 15.583 33.917 15.583C32.7014 15.583 31.5356 15.1001 30.6761 14.2406C29.8165 13.381 29.3337 12.2152 29.3337 10.9997ZM7.79199 10.9997C7.79199 10.3919 8.03344 9.80899 8.46321 9.37922C8.89298 8.94945 9.47587 8.70801 10.0837 8.70801C10.6914 8.70801 11.2743 8.94945 11.7041 9.37922C12.1339 9.80899 12.3753 10.3919 12.3753 10.9997C12.3753 11.6075 12.1339 12.1904 11.7041 12.6201C11.2743 13.0499 10.6914 13.2913 10.0837 13.2913C9.47587 13.2913 8.89298 13.0499 8.46321 12.6201C8.03344 12.1904 7.79199 11.6075 7.79199 10.9997ZM10.0837 6.41634C8.86808 6.41634 7.7023 6.89923 6.84275 7.75877C5.98321 8.61831 5.50033 9.7841 5.50033 10.9997C5.50033 12.2152 5.98321 13.381 6.84275 14.2406C7.7023 15.1001 8.86808 15.583 10.0837 15.583C11.2992 15.583 12.465 15.1001 13.3246 14.2406C14.1841 13.381 14.667 12.2152 14.667 10.9997C14.667 9.7841 14.1841 8.61831 13.3246 7.75877C12.465 6.89923 11.2992 6.41634 10.0837 6.41634ZM13.7503 21.3122C13.7503 20.2789 14.1608 19.288 14.8914 18.5574C15.622 17.8268 16.6129 17.4163 17.6462 17.4163H26.3545C27.3877 17.4163 28.3787 17.8268 29.1093 18.5574C29.8399 19.288 30.2503 20.2789 30.2503 21.3122V31.1663C30.2503 33.3544 29.3811 35.4528 27.834 37C26.2868 38.5471 24.1884 39.4163 22.0003 39.4163C19.8123 39.4163 17.7139 38.5471 16.1667 37C14.6195 35.4528 13.7503 33.3544 13.7503 31.1663V21.3122ZM22.0003 37.1247C23.5806 37.1247 25.0961 36.4969 26.2135 35.3795C27.3309 34.2621 27.9587 32.7466 27.9587 31.1663V21.3122C27.9587 20.8867 27.7897 20.4787 27.4888 20.1779C27.188 19.877 26.7799 19.708 26.3545 19.708H17.6462C17.2207 19.708 16.8127 19.877 16.5118 20.1779C16.211 20.4787 16.042 20.8867 16.042 21.3122V31.1663C16.042 32.7466 16.6697 34.2621 17.7872 35.3795C18.9046 36.4969 20.4201 37.1247 22.0003 37.1247ZM10.0837 34.3747C10.8501 34.3749 11.6014 34.1616 12.2534 33.7587C12.4542 34.5158 12.7411 35.2373 13.1022 35.9128C12.1245 36.4341 11.0284 36.6933 9.92069 36.6651C8.81301 36.637 7.73149 36.3225 6.78145 35.7523C5.8314 35.182 5.04521 34.3755 4.49942 33.4112C3.95363 32.4469 3.66684 31.3577 3.66699 30.2497V21.3131C3.66687 20.8014 3.76755 20.2947 3.96328 19.8219C4.15901 19.3492 4.44596 18.9196 4.80773 18.5577C5.16951 18.1959 5.59902 17.9088 6.07174 17.713C6.54447 17.5171 7.05114 17.4163 7.56283 17.4163H12.6045C12.8691 17.417 13.1261 17.4423 13.3754 17.4924C12.8045 18.1296 12.3838 18.8867 12.1443 19.708H7.56283C7.13737 19.708 6.72935 19.877 6.42851 20.1779C6.12767 20.4787 5.95866 20.8867 5.95866 21.3122V30.2497C5.95866 31.3437 6.39326 32.3929 7.16684 33.1665C7.94043 33.9401 8.98964 34.3747 10.0837 34.3747ZM33.917 36.6663C32.8643 36.6669 31.8276 36.4084 30.8984 35.9138C31.2596 35.2373 31.5465 34.5158 31.7472 33.7587C32.3721 34.1451 33.0889 34.3577 33.8235 34.3744C34.558 34.391 35.2837 34.2112 35.9255 33.8534C36.5673 33.4957 37.1018 32.973 37.4739 32.3394C37.846 31.7059 38.0421 30.9844 38.042 30.2497V21.3122C38.042 20.8867 37.873 20.4787 37.5721 20.1779C37.2713 19.877 36.8633 19.708 36.4378 19.708H31.8563C31.6165 18.8866 31.1955 18.1295 30.6243 17.4924C30.8749 17.4423 31.1322 17.417 31.3962 17.4163H36.4378C37.4711 17.4163 38.462 17.8268 39.1926 18.5574C39.9232 19.288 40.3337 20.2789 40.3337 21.3122V30.2497C40.3337 31.9515 39.6576 33.5836 38.4543 34.7869C37.2509 35.9903 35.6188 36.6663 33.917 36.6663Z" fill="white"/>
</svg>
