<svg width="321" height="289" viewBox="0 0 321 289" fill="none" xmlns="http://www.w3.org/2000/svg">
<g clip-path="url(#clip0_665_48)">
<path d="M318.184 110.196C318.069 110.196 317.957 110.161 317.862 110.095L162.116 1.6287C161.642 1.30015 161.079 1.12457 160.502 1.12556C159.926 1.12654 159.363 1.30404 158.89 1.6342L4.26562 110.094C4.14332 110.18 3.99195 110.213 3.84482 110.187C3.69768 110.162 3.56682 110.078 3.48104 109.956C3.39525 109.834 3.36156 109.682 3.38739 109.535C3.41321 109.388 3.49643 109.257 3.61873 109.172L158.243 0.711919C158.905 0.249763 159.693 0.00133222 160.5 5.34301e-06C161.308 -0.00132153 162.096 0.244517 162.76 0.704494L318.506 109.17C318.605 109.239 318.678 109.337 318.717 109.451C318.756 109.564 318.757 109.687 318.721 109.801C318.686 109.916 318.614 110.016 318.517 110.087C318.421 110.158 318.304 110.196 318.184 110.196Z" fill="black"/>
<path d="M13.1016 114.04L160.656 4.68457L309.329 121.821L168.258 205.45L91.6689 187.993L13.1016 114.04Z" fill="#E8E8E8"/>
<path d="M98.1335 257.105H25.2381C24.7905 257.106 24.3472 257.018 23.9335 256.847C23.5198 256.676 23.1439 256.426 22.8272 256.109C22.5105 255.793 22.2592 255.417 22.0878 255.004C21.9164 254.59 21.8281 254.147 21.8281 253.7C21.8281 253.252 21.9164 252.809 22.0878 252.395C22.2592 251.982 22.5105 251.606 22.8272 251.29C23.1439 250.974 23.5198 250.723 23.9335 250.552C24.3472 250.381 24.7905 250.293 25.2381 250.294H98.1335C98.5811 250.293 99.0244 250.381 99.4381 250.552C99.8518 250.723 100.228 250.974 100.544 251.29C100.861 251.606 101.112 251.982 101.284 252.395C101.455 252.809 101.543 253.252 101.543 253.7C101.543 254.147 101.455 254.59 101.284 255.004C101.112 255.417 100.861 255.793 100.544 256.109C100.228 256.426 99.8518 256.676 99.4381 256.847C99.0244 257.018 98.5811 257.106 98.1335 257.105Z" fill="black"/>
<path d="M51.3914 242.463H25.2381C24.7905 242.463 24.3472 242.376 23.9335 242.205C23.5198 242.034 23.1439 241.783 22.8272 241.467C22.5105 241.15 22.2592 240.775 22.0878 240.361C21.9164 239.948 21.8281 239.505 21.8281 239.057C21.8281 238.609 21.9164 238.166 22.0878 237.753C22.2592 237.339 22.5105 236.964 22.8272 236.647C23.1439 236.331 23.5198 236.08 23.9335 235.909C24.3472 235.738 24.7905 235.651 25.2381 235.651H51.3914C51.839 235.651 52.2823 235.738 52.696 235.909C53.1097 236.08 53.4856 236.331 53.8023 236.647C54.119 236.964 54.3703 237.339 54.5417 237.753C54.7131 238.166 54.8014 238.609 54.8014 239.057C54.8014 239.505 54.7131 239.948 54.5417 240.361C54.3703 240.775 54.119 241.15 53.8023 241.467C53.4856 241.783 53.1097 242.034 52.696 242.205C52.2823 242.376 51.839 242.463 51.3914 242.463Z" fill="black"/>
<path d="M162.73 174.95C162.176 174.951 161.627 174.843 161.114 174.634L70.1133 136.875V18.6823C70.1145 17.6372 70.5302 16.6352 71.2692 15.8962C72.0083 15.1572 73.0102 14.7415 74.0554 14.7402H248.634C249.68 14.7415 250.682 15.1572 251.421 15.8962C252.16 16.6352 252.575 17.6372 252.576 18.6823V136.957L252.405 137.03L164.395 174.615C163.868 174.837 163.302 174.951 162.73 174.95Z" fill="black"/>
<path d="M162.73 175.232C162.14 175.233 161.554 175.118 161.007 174.895L69.832 137.063V18.6827C69.8333 17.5629 70.2787 16.4893 71.0705 15.6975C71.8623 14.9057 72.9359 14.4603 74.0557 14.459H248.635C249.754 14.4603 250.828 14.9057 251.62 15.6975C252.412 16.4893 252.857 17.5629 252.858 18.6827V137.143L164.506 174.874C163.944 175.111 163.34 175.232 162.73 175.232ZM70.9583 136.311L161.437 173.853C162.281 174.196 163.226 174.19 164.066 173.838L251.732 136.4V18.6827C251.731 17.8615 251.404 17.0742 250.824 16.4936C250.243 15.9129 249.456 15.5863 248.635 15.5853H74.0557C73.2346 15.5863 72.4473 15.9129 71.8666 16.4936C71.286 17.0742 70.9593 17.8615 70.9584 18.6827L70.9583 136.311Z" fill="black"/>
<path d="M317.058 109.069H316.945L252.295 136.675L163.84 174.446C163.494 174.592 163.123 174.668 162.748 174.67C162.373 174.671 162.001 174.599 161.654 174.458L70.3947 136.597L4.15604 109.114L4.05485 109.069H3.94211C2.89695 109.07 1.89493 109.486 1.15589 110.225C0.416856 110.964 0.00115968 111.966 0 113.011V284.212C0.00116117 285.257 0.416857 286.259 1.15589 286.998C1.89493 287.737 2.89695 288.152 3.94211 288.154H317.058C318.103 288.152 319.105 287.737 319.844 286.998C320.583 286.259 320.999 285.257 321 284.212V113.011C320.999 111.966 320.583 110.964 319.844 110.225C319.105 109.486 318.103 109.07 317.058 109.069ZM319.874 284.212C319.873 284.958 319.577 285.674 319.049 286.202C318.521 286.73 317.805 287.027 317.058 287.027H3.94211C3.1954 287.027 2.47937 286.73 1.95137 286.202C1.42338 285.674 1.12661 284.958 1.12632 284.212V113.011C1.12734 112.283 1.40979 111.584 1.91461 111.059C2.41944 110.534 3.10756 110.225 3.83514 110.196L70.3947 137.813L161.221 175.499C162.204 175.9 163.306 175.893 164.285 175.483L252.295 137.897L317.171 110.196C317.897 110.227 318.583 110.537 319.087 111.062C319.59 111.586 319.872 112.284 319.874 113.011V284.212Z" fill="black"/>
<path d="M161.82 141.435C158.461 141.442 155.191 140.355 152.502 138.34L152.336 138.215L117.245 111.348C115.62 110.103 114.256 108.55 113.231 106.778C112.206 105.005 111.54 103.049 111.272 101.019C111.003 98.9893 111.137 96.9266 111.665 94.9487C112.194 92.9707 113.106 91.1163 114.352 89.4911C115.597 87.866 117.15 86.502 118.922 85.4771C120.695 84.4522 122.651 83.7864 124.681 83.5177C126.711 83.2491 128.773 83.3828 130.751 83.9113C132.729 84.4398 134.584 85.3527 136.209 86.5979L158.938 104.026L212.651 33.9769C213.897 32.3522 215.45 30.9888 217.223 29.9645C218.995 28.9402 220.952 28.2751 222.982 28.0071C225.012 27.7392 227.075 27.8737 229.052 28.4029C231.03 28.9321 232.884 29.8458 234.509 31.0916L234.175 31.545L234.517 31.0982C237.795 33.6169 239.939 37.3328 240.48 41.4306C241.021 45.5284 239.914 49.6734 237.403 52.9563L174.224 135.351C172.762 137.25 170.883 138.786 168.732 139.842C166.581 140.897 164.216 141.442 161.82 141.435Z" fill="#2CE85E"/>
</g>
<defs>
<clipPath id="clip0_665_48">
<rect width="321" height="288.154" fill="white"/>
</clipPath>
</defs>
</svg>
