<svg width="36" height="30" viewBox="0 0 36 30" fill="none" xmlns="http://www.w3.org/2000/svg">
<path d="M24.0723 11.3906L15.8223 5.89062C15.6669 5.78694 15.4863 5.72742 15.2997 5.71842C15.1131 5.70942 14.9275 5.75127 14.7629 5.83952C14.5982 5.92776 14.4606 6.05908 14.3648 6.21944C14.2689 6.3798 14.2185 6.56318 14.2188 6.75V17.75C14.2185 17.9368 14.2689 18.1202 14.3648 18.2806C14.4606 18.4409 14.5982 18.5722 14.7629 18.6605C14.9275 18.7487 15.1131 18.7906 15.2997 18.7816C15.4863 18.7726 15.6669 18.7131 15.8223 18.6094L24.0723 13.1094C24.2142 13.0153 24.3305 12.8876 24.411 12.7377C24.4914 12.5877 24.5336 12.4202 24.5336 12.25C24.5336 12.0798 24.4914 11.9123 24.411 11.7623C24.3305 11.6124 24.2142 11.4847 24.0723 11.3906ZM16.2812 15.8233V8.67672L21.6403 12.25L16.2812 15.8233ZM33.125 0.21875H2.875C2.23682 0.21875 1.62478 0.472265 1.17352 0.923524C0.722265 1.37478 0.46875 1.98682 0.46875 2.625V21.875C0.46875 22.5132 0.722265 23.1252 1.17352 23.5765C1.62478 24.0277 2.23682 24.2812 2.875 24.2812H33.125C33.7632 24.2812 34.3752 24.0277 34.8265 23.5765C35.2777 23.1252 35.5312 22.5132 35.5312 21.875V2.625C35.5312 1.98682 35.2777 1.37478 34.8265 0.923524C34.3752 0.472265 33.7632 0.21875 33.125 0.21875ZM33.4688 21.875C33.4688 21.9662 33.4325 22.0536 33.3681 22.1181C33.3036 22.1825 33.2162 22.2188 33.125 22.2188H2.875C2.78383 22.2188 2.6964 22.1825 2.63193 22.1181C2.56747 22.0536 2.53125 21.9662 2.53125 21.875V2.625C2.53125 2.53383 2.56747 2.4464 2.63193 2.38193C2.6964 2.31747 2.78383 2.28125 2.875 2.28125H33.125C33.2162 2.28125 33.3036 2.31747 33.3681 2.38193C33.4325 2.4464 33.4688 2.53383 33.4688 2.625V21.875ZM35.5312 28.75C35.5312 29.0235 35.4226 29.2858 35.2292 29.4792C35.0358 29.6726 34.7735 29.7812 34.5 29.7812H1.5C1.2265 29.7812 0.964193 29.6726 0.770796 29.4792C0.577399 29.2858 0.46875 29.0235 0.46875 28.75C0.46875 28.4765 0.577399 28.2142 0.770796 28.0208C0.964193 27.8274 1.2265 27.7188 1.5 27.7188H34.5C34.7735 27.7188 35.0358 27.8274 35.2292 28.0208C35.4226 28.2142 35.5312 28.4765 35.5312 28.75Z" fill="black"/>
</svg>
