<svg width="222" height="206" viewBox="0 0 222 206" fill="none" xmlns="http://www.w3.org/2000/svg">
    <g clip-path="url(#clip0_660_116)">
    <path d="M66.607 73.4318L66.6165 73.4406L66.6266 73.449C70.2704 76.4921 75.7578 76.5154 79.0809 73.4318C82.4265 70.3273 82.3992 65.1752 79.0997 61.7734L79.0815 61.7545L79.0613 61.7377C75.4175 58.6946 69.9301 58.6714 66.607 61.755L66.5973 61.7639L66.5882 61.7734C63.2887 65.1752 63.2614 70.3273 66.607 73.4318ZM221.24 141.004L151.953 205.298L45.2471 93.465V61.374L66.1027 42.0215H100.762L221.24 141.004Z" fill="#EDEDED" stroke="#3E3B3B"/>
    <path d="M75.9656 66.9508C74.925 62.7664 72.8437 58.582 70.4156 55.0414C64.5187 46.0289 56.1937 38.6258 46.4812 33.1539C33.3 26.0727 18.3844 22.8539 3.12187 21.5664C1.3875 21.5664 0 23.1758 0 24.4633C0 26.0727 1.3875 27.3602 3.12187 27.3602C19.425 28.6477 36.075 32.832 49.6031 41.8445C53.4187 44.4195 57.9281 48.6039 61.05 52.4664C61.7437 53.1102 60.7031 51.8227 61.05 52.7883C61.05 53.1102 61.3969 53.1102 61.3969 53.432C61.7437 53.7539 62.0906 54.3977 62.4375 54.7195C63.1312 55.6852 63.825 56.3289 64.1719 57.2945C65.2125 58.9039 65.9062 60.1914 66.9469 61.8008C67.2937 62.1227 67.2937 62.7664 67.6406 63.0883C67.6406 63.4102 67.9875 63.4102 67.9875 63.732C68.3344 64.3758 68.6812 65.3414 68.6812 65.9852C69.0281 66.6289 69.0281 67.2727 69.375 67.9164C70.4156 72.4227 77.0062 70.8133 75.9656 66.9508Z" fill="#94989B"/>
    <path d="M53.0717 53.4313L52.7248 53.1094C50.9904 51.8219 49.6029 50.5344 48.2154 48.925C45.0936 45.7063 42.3186 41.5219 40.2373 37.3375C34.3404 26.7156 31.2186 14.8063 30.1779 3.21875C29.8311 1.2875 28.4436 0 26.3623 0C24.6279 0 22.8936 1.2875 23.2404 2.89688C24.2811 15.7719 28.0967 28.6469 34.3404 40.2344C36.7686 44.7406 39.8904 49.2469 43.3592 53.1094C44.7467 54.7188 46.4811 56.3281 48.2154 57.6156L53.0717 53.4313Z" fill="#3E4347"/>
    <path d="M79.5258 88.9256L89.3515 70.1053L93.786 74.3878L87.0858 85.3339L87.2002 85.4444L98.2778 78.7254L101.768 82.0961L95.4123 93.4301L95.5268 93.5406L106.26 86.4338L110.695 90.7162L92.2287 101.193L88.4236 97.5181L93.8362 86.9319L93.7218 86.8214L83.331 92.6002L79.5258 88.9256ZM115.959 95.7998L101.813 110.448L97.8363 106.608L111.982 91.9595L115.959 95.7998ZM130.518 109.859L116.372 124.508L113.053 121.303L115.192 108.495L115.107 108.412L107.675 116.109L103.698 112.268L117.844 97.6198L121.22 100.88L119.022 113.576L119.137 113.686L126.541 106.019L130.518 109.859ZM145.073 123.915L130.927 138.564L127.609 135.359L129.748 122.551L129.662 122.468L122.23 130.165L118.253 126.324L132.399 111.676L135.775 114.936L133.578 127.632L133.692 127.742L141.096 120.075L145.073 123.915ZM132.809 140.38L146.954 125.732L157.511 135.927L154.417 139.131L147.837 132.776L145.405 135.294L151.442 141.124L148.348 144.328L142.311 138.499L139.88 141.016L146.431 147.343L143.337 150.547L132.809 140.38ZM145.338 152.48L159.484 137.831L165.807 143.937C166.894 144.987 167.654 146.104 168.087 147.287C168.52 148.47 168.604 149.652 168.339 150.834C168.074 152.015 167.439 153.125 166.435 154.165C165.422 155.214 164.334 155.873 163.172 156.141C162.014 156.415 160.838 156.33 159.644 155.887C158.455 155.448 157.303 154.69 156.187 153.612L152.41 149.965L155.394 146.875L158.37 149.749C158.837 150.2 159.291 150.527 159.73 150.731C160.179 150.934 160.616 150.992 161.041 150.905C161.471 150.822 161.886 150.574 162.287 150.159C162.692 149.739 162.931 149.311 163.003 148.873C163.084 148.436 163.018 147.994 162.804 147.548C162.599 147.101 162.263 146.652 161.796 146.201L160.394 144.847L149.315 156.32L145.338 152.48ZM160.414 154.045L157.583 164.305L153.263 160.133L156.179 149.956L160.414 154.045ZM176.047 167.815L172.414 164.306C172.611 164.063 172.719 163.794 172.737 163.499C172.755 163.203 172.696 162.906 172.56 162.609C172.433 162.311 172.238 162.035 171.976 161.782C171.637 161.455 171.286 161.236 170.924 161.125C170.561 161.015 170.271 161.076 170.055 161.309C169.893 161.467 169.818 161.684 169.827 161.96C169.841 162.241 170.021 162.623 170.367 163.104L172.212 165.66C173.14 166.951 173.643 168.105 173.721 169.121C173.809 170.137 173.464 171.052 172.686 171.868C171.926 172.645 171.036 173.099 170.017 173.229C169.006 173.359 167.951 173.197 166.851 172.743C165.76 172.289 164.707 171.571 163.691 170.59C162.013 168.969 161.031 167.357 160.745 165.754C160.464 164.156 160.812 162.741 161.789 161.51L165.708 165.295C165.425 165.694 165.336 166.129 165.443 166.601C165.559 167.072 165.841 167.524 166.289 167.957C166.652 168.307 167.009 168.533 167.363 168.634C167.721 168.741 168.013 168.682 168.239 168.457C168.437 168.243 168.493 167.975 168.408 167.653C168.327 167.335 168.109 166.931 167.753 166.441L166.14 164.219C165.208 162.941 164.728 161.759 164.699 160.672C164.671 159.584 165.076 158.612 165.914 157.753C166.646 156.986 167.47 156.533 168.387 156.395C169.313 156.257 170.288 156.416 171.313 156.871C172.348 157.327 173.387 158.059 174.432 159.067C176.02 160.601 176.954 162.138 177.234 163.68C177.518 165.227 177.123 166.605 176.047 167.815Z" fill="#02641C"/>
    </g>
    <defs>
    <clipPath id="clip0_660_116">
    <rect width="222" height="206" fill="white"/>
    </clipPath>
    </defs>
    </svg>
    