<svg width="30" height="31" viewBox="0 0 30 31" fill="none" xmlns="http://www.w3.org/2000/svg">
<path d="M15 7.29806C13.4767 7.29806 11.9876 7.74977 10.721 8.59607C9.45445 9.44237 8.46728 10.6453 7.88434 12.0526C7.30139 13.4599 7.14887 15.0085 7.44605 16.5026C7.74323 17.9966 8.47677 19.369 9.55391 20.4461C10.631 21.5232 12.0034 22.2568 13.4974 22.554C14.9915 22.8511 16.5401 22.6986 17.9474 22.1157C19.3547 21.5327 20.5576 20.5456 21.4039 19.279C22.2502 18.0124 22.7019 16.5233 22.7019 15C22.7044 13.9879 22.5069 12.9852 22.1207 12.0497C21.7345 11.1141 21.1673 10.2641 20.4516 9.54838C19.7359 8.8327 18.8859 8.26547 17.9503 7.87929C17.0148 7.49311 16.0121 7.29558 15 7.29806ZM15 20.0157C14.008 20.0157 13.0383 19.7215 12.2135 19.1704C11.3886 18.6192 10.7458 17.8359 10.3661 16.9194C9.98652 16.0029 9.88719 14.9944 10.0807 14.0215C10.2742 13.0486 10.7519 12.1549 11.4534 11.4534C12.1548 10.7519 13.0486 10.2743 14.0215 10.0807C14.9944 9.88719 16.0029 9.98652 16.9194 10.3661C17.8359 10.7458 18.6192 11.3886 19.1704 12.2135C19.7215 13.0383 20.0157 14.008 20.0157 15C20.0157 16.3302 19.4872 17.606 18.5466 18.5466C17.606 19.4872 16.3302 20.0157 15 20.0157ZM24.8247 6.97871C24.8247 7.35025 24.7145 7.71344 24.5081 8.02236C24.3017 8.33128 24.0083 8.57206 23.665 8.71424C23.3218 8.85642 22.9441 8.89362 22.5797 8.82114C22.2153 8.74866 21.8805 8.56975 21.6178 8.30703C21.3551 8.04431 21.1762 7.70959 21.1037 7.34519C21.0312 6.9808 21.0684 6.60309 21.2106 6.25983C21.3528 5.91658 21.5936 5.62319 21.9025 5.41678C22.2114 5.21036 22.5746 5.10019 22.9461 5.10019C23.4444 5.10019 23.9222 5.29811 24.2745 5.6504C24.6268 6.00269 24.8247 6.4805 24.8247 6.97871ZM29.9155 8.85723C29.9722 6.52155 29.1008 4.25861 27.4922 2.56418C26.6577 1.75752 25.6723 1.12331 24.5925 0.697824C23.5127 0.27234 22.3596 0.0639358 21.1991 0.0845335C18.757 -0.0281778 11.243 -0.0281778 8.80088 0.0845335C6.46626 0.0339809 4.20558 0.904511 2.50783 2.50783C0.899236 4.20225 0.0278365 6.46519 0.0845335 8.80088C-0.0281778 11.243 -0.0281778 18.757 0.0845335 21.1991C0.0278365 23.5348 0.899236 25.7978 2.50783 27.4922C4.20558 29.0955 6.46626 29.966 8.80088 29.9155C11.2805 30.0658 18.7195 30.0658 21.1991 29.9155C23.5348 29.9722 25.7977 29.1008 27.4922 27.4922C29.1008 25.7978 29.9722 23.5348 29.9155 21.1991C30.0282 18.757 30.0282 11.243 29.9155 8.80088V8.85723ZM26.722 23.8854C26.4669 24.5315 26.0819 25.1183 25.5907 25.6095C25.0995 26.1007 24.5127 26.4857 23.8666 26.7408C20.9504 27.3304 17.9691 27.5325 15 27.3419C12.0371 27.5308 9.06226 27.3287 6.15216 26.7408C5.50606 26.4857 4.91924 26.1007 4.42807 25.6095C3.9369 25.1183 3.55186 24.5315 3.29681 23.8854C2.50783 21.8942 2.67689 17.1979 2.67689 15.0188C2.67689 12.8397 2.50783 8.12461 3.29681 6.15216C3.54466 5.49969 3.92696 4.90663 4.41887 4.41148C4.91079 3.91633 5.50133 3.53015 6.15216 3.27802C9.06226 2.69008 12.0371 2.48797 15 2.6769C17.9691 2.48631 20.9504 2.68843 23.8666 3.27802C24.5127 3.53308 25.0995 3.91812 25.5907 4.40929C26.0819 4.90046 26.4669 5.48728 26.722 6.13338C27.511 8.12461 27.3231 12.8209 27.3231 15C27.3231 17.1791 27.511 21.8942 26.722 23.8666V23.8854Z" fill="#B2B2B2"/>
</svg>
