<svg width="19" height="18" viewBox="0 0 19 18" fill="none" xmlns="http://www.w3.org/2000/svg">
<path d="M9.02124 6.5625C8.37478 6.5625 7.75479 6.81931 7.29767 7.27643C6.84055 7.73355 6.58374 8.35353 6.58374 9C6.58374 9.64647 6.84055 10.2665 7.29767 10.7236C7.75479 11.1807 8.37478 11.4375 9.02124 11.4375C9.66771 11.4375 10.2877 11.1807 10.7448 10.7236C11.2019 10.2665 11.4587 9.64647 11.4587 9C11.4587 8.35353 11.2019 7.73355 10.7448 7.27643C10.2877 6.81931 9.66771 6.5625 9.02124 6.5625Z" fill="white"/>
<path fill-rule="evenodd" clip-rule="evenodd" d="M5.09873 2.31146C7.70574 2.02248 10.3367 2.02248 12.9437 2.31146C14.368 2.47046 15.5162 3.59171 15.6835 5.02121C15.9926 7.6647 15.9926 10.3352 15.6835 12.9787C15.5162 14.4082 14.368 15.5295 12.9445 15.6892C10.3372 15.9783 7.70599 15.9783 5.09873 15.6892C3.67448 15.5295 2.52623 14.4082 2.35898 12.9795C2.04977 10.3357 2.04977 7.66495 2.35898 5.02121C2.52623 3.59171 3.67448 2.47046 5.09873 2.31146ZM12.7712 4.49996C12.5723 4.49996 12.3815 4.57898 12.2409 4.71963C12.1002 4.86028 12.0212 5.05105 12.0212 5.24996C12.0212 5.44887 12.1002 5.63964 12.2409 5.78029C12.3815 5.92094 12.5723 5.99996 12.7712 5.99996C12.9701 5.99996 13.1609 5.92094 13.3016 5.78029C13.4422 5.63964 13.5212 5.44887 13.5212 5.24996C13.5212 5.05105 13.4422 4.86028 13.3016 4.71963C13.1609 4.57898 12.9701 4.49996 12.7712 4.49996ZM5.45873 8.99996C5.45873 8.05512 5.83406 7.14899 6.50216 6.48089C7.17026 5.81279 8.07639 5.43746 9.02123 5.43746C9.96606 5.43746 10.8722 5.81279 11.5403 6.48089C12.2084 7.14899 12.5837 8.05512 12.5837 8.99996C12.5837 9.94479 12.2084 10.8509 11.5403 11.519C10.8722 12.1871 9.96606 12.5625 9.02123 12.5625C8.07639 12.5625 7.17026 12.1871 6.50216 11.519C5.83406 10.8509 5.45873 9.94479 5.45873 8.99996Z" fill="white"/>
</svg>
