<svg width="14" height="14" viewBox="0 0 14 14" fill="none" xmlns="http://www.w3.org/2000/svg">
<path fill-rule="evenodd" clip-rule="evenodd" d="M3.07712 0.311458C5.68414 0.0224829 8.3151 0.0224829 10.9221 0.311458C12.3464 0.470458 13.4946 1.59171 13.6619 3.02121C13.971 5.6647 13.971 8.33522 13.6619 10.9787C13.4946 12.4082 12.3464 13.5295 10.9229 13.6892C8.31561 13.9783 5.68438 13.9783 3.07712 13.6892C1.65287 13.5295 0.504622 12.4082 0.337372 10.9795C0.0281677 8.33572 0.0281677 5.66495 0.337372 3.02121C0.504622 1.59171 1.65287 0.470458 3.07712 0.311458ZM10.7496 2.49996C10.5507 2.49996 10.3599 2.57898 10.2193 2.71963C10.0786 2.86028 9.99962 3.05105 9.99962 3.24996C9.99962 3.44887 10.0786 3.63964 10.2193 3.78029C10.3599 3.92094 10.5507 3.99996 10.7496 3.99996C10.9485 3.99996 11.1393 3.92094 11.28 3.78029C11.4206 3.63964 11.4996 3.44887 11.4996 3.24996C11.4996 3.05105 11.4206 2.86028 11.28 2.71963C11.1393 2.57898 10.9485 2.49996 10.7496 2.49996ZM3.43712 6.99996C3.43712 6.05512 3.81246 5.14899 4.48055 4.48089C5.14865 3.81279 6.05479 3.43746 6.99962 3.43746C7.94445 3.43746 8.85059 3.81279 9.51869 4.48089C10.1868 5.14899 10.5621 6.05512 10.5621 6.99996C10.5621 7.94479 10.1868 8.85093 9.51869 9.51903C8.85059 10.1871 7.94445 10.5625 6.99962 10.5625C6.05479 10.5625 5.14865 10.1871 4.48055 9.51903C3.81246 8.85093 3.43712 7.94479 3.43712 6.99996Z" fill="url(#paint0_linear_144_25)"/>
<defs>
<linearGradient id="paint0_linear_144_25" x1="6.9996" y1="0.0947266" x2="6.9996" y2="13.906" gradientUnits="userSpaceOnUse">
<stop/>
<stop offset="1" stop-color="#1B1A1A"/>
</linearGradient>
</defs>
</svg>
