<svg width="16" height="15" viewBox="0 0 16 15" fill="none" xmlns="http://www.w3.org/2000/svg">
<path d="M3.16919 1.57476C3.16899 1.99221 3.00296 2.39247 2.70763 2.6875C2.41231 2.98253 2.01188 3.14816 1.59443 3.14795C1.17699 3.14775 0.776721 2.98172 0.481691 2.68639C0.186661 2.39106 0.0210317 1.99063 0.0212404 1.57319C0.0214492 1.15575 0.187479 0.755481 0.482804 0.460451C0.77813 0.16542 1.17856 -0.000208525 1.596 1.97032e-07C2.01345 0.000208919 2.41371 0.166238 2.70874 0.461564C3.00377 0.756889 3.1694 1.15732 3.16919 1.57476ZM3.21641 4.31348H0.0684597V14.1666H3.21641V4.31348ZM8.19018 4.31348H5.05797V14.1666H8.1587V8.99607C8.1587 6.11569 11.9126 5.84811 11.9126 8.99607V14.1666H15.0212V7.92576C15.0212 3.07004 9.4651 3.25105 8.1587 5.63562L8.19018 4.31348Z" fill="white"/>
</svg>
