<svg width="12" height="12" viewBox="0 0 12 12" fill="none" xmlns="http://www.w3.org/2000/svg">
<path d="M2.4952 2.08167C2.49505 2.38315 2.37514 2.67223 2.16185 2.88531C1.94856 3.09839 1.65936 3.21801 1.35787 3.21786C1.05638 3.21771 0.767305 3.0978 0.554227 2.88451C0.34115 2.67122 0.221529 2.38202 0.22168 2.08053C0.221831 1.77904 0.341741 1.48996 0.555031 1.27688C0.768322 1.06381 1.05752 0.944185 1.35901 0.944336C1.6605 0.944487 1.94958 1.0644 2.16265 1.27769C2.37573 1.49098 2.49535 1.78018 2.4952 2.08167ZM2.5293 4.05963H0.255783V11.1758H2.5293V4.05963ZM6.12147 4.05963H3.85932V11.1758H6.09873V7.44149C6.09873 5.36122 8.80991 5.16797 8.80991 7.44149V11.1758H11.055V6.6685C11.055 3.16159 7.04225 3.29232 6.09873 5.01451L6.12147 4.05963Z" fill="url(#paint0_linear_139_363)"/>
<defs>
<linearGradient id="paint0_linear_139_363" x1="5.63835" y1="0.944336" x2="5.63835" y2="11.1758" gradientUnits="userSpaceOnUse">
<stop/>
<stop offset="1" stop-color="#1B1A1A"/>
</linearGradient>
</defs>
</svg>
