<svg width="35" height="33" viewBox="0 0 35 33" fill="none" xmlns="http://www.w3.org/2000/svg">
<path d="M7.89844 4.34549C7.89798 5.26656 7.53165 6.14973 6.88003 6.8007C6.2284 7.45167 5.34488 7.81712 4.4238 7.81666C3.50273 7.8162 2.61957 7.44986 1.9686 6.79824C1.31763 6.14662 0.952177 5.26309 0.952637 4.34202C0.953098 3.42095 1.31943 2.53778 1.97105 1.88681C2.62268 1.23584 3.50621 0.87039 4.42728 0.87085C5.34835 0.871311 6.23151 1.23765 6.88248 1.88927C7.53345 2.54089 7.8989 3.42442 7.89844 4.34549ZM8.00263 10.3883H1.05682V32.1287H8.00263V10.3883ZM18.977 10.3883H12.0659V32.1287H18.9075V20.7202C18.9075 14.3648 27.1904 13.7744 27.1904 20.7202V32.1287H34.0494V18.3587C34.0494 7.64475 21.7901 8.04413 18.9075 13.3056L18.977 10.3883Z" fill="#B2B2B2"/>
</svg>
