<svg width="27" height="27" viewBox="0 0 27 27" fill="none" xmlns="http://www.w3.org/2000/svg">
<path d="M25.2325 10.0933H23.5946C23.1619 10.0856 22.7491 9.91019 22.4433 9.60407C22.1375 9.29794 21.9624 8.88502 21.9551 8.45235C21.9549 7.34217 21.736 6.24291 21.311 5.21732C20.886 4.19172 20.2631 3.25989 19.478 2.47501C18.6928 1.69014 17.7608 1.0676 16.735 0.642937C15.7093 0.218273 14.6099 -0.000196864 13.4998 1.33107e-07H8.45385C6.21201 9.78181e-08 4.06197 0.890465 2.4766 2.47554C0.891244 4.06062 0.000397771 6.21051 0 8.45235V18.5472C0.000397771 20.789 0.891244 22.9389 2.4766 24.524C4.06197 26.1091 6.21201 26.9995 8.45385 26.9995H18.5472C20.789 26.9991 22.9389 26.1083 24.524 24.5229C26.109 22.9375 26.9995 20.7875 26.9995 18.5457V11.8588C27.0051 11.6253 26.9631 11.3931 26.8763 11.1763C26.7894 10.9595 26.6595 10.7626 26.4942 10.5975C26.329 10.4324 26.132 10.3026 25.9151 10.216C25.6982 10.1293 25.466 10.0876 25.2325 10.0933ZM8.32785 6.81288H14.3832C15.2667 6.81288 16.0227 7.56886 16.0227 8.45235C16.0227 9.33583 15.2667 10.0948 14.3847 10.0948H8.32485C7.89219 10.0871 7.47942 9.9117 7.17358 9.60557C6.86773 9.29944 6.6927 8.88652 6.68538 8.45385C6.68538 7.57036 7.44287 6.81438 8.32485 6.81438M18.6702 20.1881H8.45385C8.02092 20.1808 7.60778 20.0056 7.30161 19.6994C6.99545 19.3932 6.82021 18.9801 6.81288 18.5472C6.81288 17.6637 7.57036 16.9077 8.45385 16.9077H18.6732C19.5551 16.9077 20.3126 17.6637 20.3126 18.5472C20.3126 19.4307 19.5551 20.1881 18.6732 20.1881" fill="#B2B2B2"/>
</svg>
