<svg width="27" height="32" viewBox="0 0 27 32" fill="none" xmlns="http://www.w3.org/2000/svg">
<path fill-rule="evenodd" clip-rule="evenodd" d="M14.1804 0.0259122C15.8768 -6.94673e-09 17.5601 0.0129367 19.2435 0C19.3471 1.98129 20.0593 4.0014 21.5096 5.39992C22.9599 6.83733 25.0058 7.49776 27 7.71788V12.9365C25.1353 12.8718 23.2577 12.4833 21.5614 11.6804C20.8233 11.3437 20.137 10.9164 19.4636 10.4761C19.4507 14.2574 19.4766 18.0386 19.4377 21.8069C19.3341 23.6198 18.7385 25.4199 17.6896 26.909C15.9933 29.3953 13.0539 31.014 10.0367 31.0658C8.185 31.1694 6.33327 30.6643 4.75348 29.732C2.13778 28.191 0.29898 25.368 0.0270766 22.3379C0.00116433 21.6904 -0.0117724 21.0429 0.014101 20.4084C0.247195 17.948 1.46441 15.5912 3.35499 13.9854C5.5045 12.1207 8.50869 11.2272 11.3186 11.7581C11.3445 13.6747 11.2669 15.5912 11.2669 17.5077C9.98487 17.0933 8.48282 17.2098 7.35624 17.9868C6.54045 18.5178 5.9189 19.3336 5.59518 20.253C5.32323 20.9134 5.40093 21.6386 5.41387 22.3379C5.72466 24.4616 7.7706 26.2486 9.94606 26.0543C11.3964 26.0414 12.7819 25.1997 13.533 23.9695C13.779 23.5421 14.0509 23.1019 14.0639 22.5968C14.1934 20.2789 14.1416 17.9739 14.1545 15.6559C14.1675 10.4373 14.1416 5.23159 14.1804 0.0259122Z" fill="#B2B2B2"/>
</svg>
