<svg width="27" height="19" viewBox="0 0 27 19" fill="none" xmlns="http://www.w3.org/2000/svg">
<path d="M10.8 13.5L17.8065 9.45L10.8 5.4V13.5ZM26.406 2.9295C26.5815 3.564 26.703 4.4145 26.784 5.4945C26.8785 6.5745 26.919 7.506 26.919 8.316L27 9.45C27 12.4065 26.784 14.58 26.406 15.9705C26.0685 17.1855 25.2855 17.9685 24.0705 18.306C23.436 18.4815 22.275 18.603 20.493 18.684C18.738 18.7785 17.1315 18.819 15.6465 18.819L13.5 18.9C7.8435 18.9 4.32 18.684 2.9295 18.306C1.7145 17.9685 0.9315 17.1855 0.594 15.9705C0.4185 15.336 0.297 14.4855 0.216 13.4055C0.1215 12.3255 0.0809999 11.394 0.0809999 10.584L0 9.45C0 6.4935 0.216 4.32 0.594 2.9295C0.9315 1.7145 1.7145 0.9315 2.9295 0.594C3.564 0.4185 4.725 0.297 6.507 0.216C8.262 0.1215 9.8685 0.0809999 11.3535 0.0809999L13.5 0C19.1565 0 22.68 0.216 24.0705 0.594C25.2855 0.9315 26.0685 1.7145 26.406 2.9295Z" fill="#B2B2B2"/>
</svg>
